<?xml version="1.0" encoding="utf-8"?>
<!-- Generator: Adobe Illustrator 19.2.0, SVG Export Plug-In . SVG Version: 6.00 Build 0)  -->
<svg version="1.1" xmlns="http://www.w3.org/2000/svg" xmlns:xlink="http://www.w3.org/1999/xlink" x="0px" y="0px"
	 viewBox="0 0 100 25" style="enable-background:new 0 0 100 25;" xml:space="preserve">
<style type="text/css">
	.st0{fill:#FFFFFF;}
	.st1{fill:none;}
</style>
<g id="facebook-icon">
	<path class="st0" d="M39.5,0h4v4.3h-2.4c-1.2,0-2.1,0.9-2.1,2.1v2.8h4.5v4.9h-4.5V25H34V14.1h-3.5V9.2H34V5.4
		C34.1,2.4,36.5,0,39.5,0"/>
	<rect x="25" class="st1" width="25" height="25"/>
</g>
<g id="vimeo-icon">
	<path class="st0" d="M25,6.3c-0.1,2.6-1.8,6.1-5.1,10.6c-3.4,4.7-6.3,7-8.6,7c-1.5,0-2.7-1.4-3.7-4.3l-2-7.9C4.8,9,4,7.5,3.1,7.5
		c-0.7,0.3-1.4,0.7-2,1.3L0,7.2C1.2,6,2.4,4.9,3.6,3.7c1.6-1.5,2.9-2.3,3.7-2.4c1.9-0.2,3.2,1.2,3.6,4.2c0.5,3.3,0.8,5.3,1,6.1
		c0.6,2.7,1.2,4.1,1.8,4.1c0.5,0,1.3-0.9,2.4-2.6c0.8-1.2,1.4-2.6,1.7-4c0.2-1.5-0.4-2.3-1.7-2.3c-0.6,0-1.2,0.2-1.8,0.4
		c1.2-4.3,3.6-6.4,7-6.2C23.9,1.1,25.1,2.9,25,6.3"/>
	<rect class="st1" width="25" height="25"/>
</g>
<g id="youtube-icon">
	<path id="YouTube" class="st0" d="M71.1,18.3h-1.6l0-0.8c0-0.4,0.3-0.6,0.8-0.6h0.1c0.4,0,0.8,0.3,0.8,0.6L71.1,18.3z M65,16.6
		c-0.4,0-0.8,0.2-0.8,0.5V21c0,0.3,0.3,0.5,0.8,0.5c0.4,0,0.8-0.2,0.8-0.5v-3.9C65.7,16.8,65.4,16.6,65,16.6z M75,14.4v7.4
		c0,1.8-1.8,3.2-4.1,3.2H54.1c-2.3,0-4.1-1.4-4.1-3.2v-7.4c0-1.8,1.8-3.2,4.1-3.2h16.8C73.2,11.2,75,12.6,75,14.4z M55.2,22.6l0-7.8
		l2.1,0v-1.2l-5.6,0v1.1l1.7,0v7.8H55.2z M61.5,16h-1.7v4.1c0,0.6,0,0.9,0,1c-0.1,0.3-0.8,0.7-1,0c0-0.1,0-0.4,0-1l0-4.2H57l0,4.1
		c0,0.6,0,1.1,0,1.3c0,0.4,0,0.8,0.4,1.1c0.8,0.5,2.3-0.1,2.7-0.7l0,0.9l1.4,0L61.5,16L61.5,16z M67,20.7l0-3.5c0-1.3-1.2-2.1-2.8-1
		l0-2.6l-1.7,0l0,8.9l1.4,0l0.1-0.6C65.9,23.4,67,22.4,67,20.7z M72.5,20.3l-1.3,0c0,0,0,0.1,0,0.1V21c0,0.3-0.3,0.6-0.7,0.6h-0.3
		c-0.4,0-0.7-0.3-0.7-0.6V21v-0.7v-0.9h3v-0.9c0-0.7,0-1.4-0.1-1.8c-0.2-1.2-2.3-1.4-3.4-0.8c-0.3,0.2-0.6,0.5-0.7,0.8
		c-0.1,0.4-0.2,0.8-0.2,1.5v2.1C68.1,23.7,73.1,23.2,72.5,20.3z M65.8,9.1c0.1,0.2,0.2,0.3,0.4,0.4c0.2,0.1,0.4,0.2,0.7,0.2
		c0.3,0,0.5-0.1,0.7-0.2c0.2-0.1,0.4-0.3,0.5-0.5l0,0.6H70V2.7h-1.5v5.3c0,0.3-0.3,0.5-0.6,0.5c-0.3,0-0.6-0.2-0.6-0.5V2.7h-1.6v4.6
		c0,0.6,0,1,0,1.2C65.6,8.7,65.7,8.9,65.8,9.1z M59.9,5.2c0-0.7,0.1-1.2,0.2-1.5c0.1-0.4,0.4-0.7,0.7-0.9c0.3-0.2,0.8-0.3,1.3-0.3
		c0.4,0,0.8,0.1,1.2,0.2C63.6,2.8,63.9,3,64,3.2c0.2,0.2,0.3,0.5,0.4,0.7c0.1,0.2,0.1,0.6,0.1,1.1v1.7c0,0.6,0,1.1-0.1,1.4
		C64.3,8.5,64.2,8.8,64,9c-0.2,0.3-0.4,0.4-0.7,0.6c-0.3,0.1-0.7,0.2-1.1,0.2c-0.4,0-0.8-0.1-1.1-0.2c-0.3-0.1-0.5-0.3-0.7-0.5
		c-0.2-0.2-0.3-0.5-0.4-0.8c-0.1-0.3-0.1-0.8-0.1-1.4L59.9,5.2L59.9,5.2z M61.4,7.9c0,0.4,0.3,0.7,0.8,0.7c0.4,0,0.8-0.3,0.8-0.7
		V4.3c0-0.4-0.3-0.7-0.8-0.7c-0.4,0-0.8,0.3-0.8,0.7V7.9z M56.1,9.8h1.8l0-5.3L60.1,0h-2l-1.1,3.4L55.7,0h-2l2.3,4.5L56.1,9.8z"/>
</g>
<g id="instagram-icon">
	<title>instagram-icon</title>
	<path class="st0" d="M91.4,8.5c-2.1-2.1-5.6-2.1-7.7,0c-2.1,2.1-2.1,5.5,0,7.6l0,0c2.1,2.1,5.6,2.2,7.7,0.1
		c2.2-2.1,2.2-5.5,0.1-7.6C91.4,8.5,91.4,8.5,91.4,8.5L91.4,8.5L91.4,8.5z M95.7,10.5c0.1,0.6,0.2,1.1,0.2,1.7
		c0,2.2-0.9,4.3-2.4,5.8l0,0c-3.3,3.2-8.5,3.2-11.8,0l0,0c-1.6-1.5-2.5-3.6-2.4-5.8c0-0.6,0.1-1.2,0.2-1.7H78v8.7
		c0,1.6,1.3,2.8,2.9,2.8h13.3c1.6,0,2.9-1.3,2.9-2.8v-8.7H95.7L95.7,10.5z M91.3,5c-0.5,1.5,0.4,3.2,2,3.6c0.3,0.1,0.5,0.1,0.8,0.1
		c0.3,0,0.6,0,0.9-0.1c1.6-0.4,2.5-2.1,2-3.6c-0.5-1.5-2.1-2.4-3.7-2C92.4,3.3,91.6,4,91.3,5z M78.8,0h17.5c2.1,0,3.8,1.7,3.8,3.7
		v17.6c0,2-1.7,3.7-3.8,3.7H78.8c-2.1,0-3.8-1.7-3.8-3.7V3.7C75,1.7,76.7,0,78.8,0L78.8,0z"/>
</g>
</svg>
