<?xml version="1.0" encoding="utf-8"?>
<!-- Generator: Adobe Illustrator 18.1.1, SVG Export Plug-In . SVG Version: 6.00 Build 0)  -->
<svg version="1.1" xmlns="http://www.w3.org/2000/svg" xmlns:xlink="http://www.w3.org/1999/xlink" x="0px" y="0px"
	 viewBox="0 0 1920 302.4" style="enable-background:new 0 0 1920 302.4;" xml:space="preserve">
<style type="text/css">
	.st0{fill:#00F9F8;}
	.st1{opacity:0.1;}
	.st2{opacity:0.5;fill:#4D4F4E;}
	.st3{fill:#4D4F4E;}
</style>
<g id="about-team-title">
	<g class="st1">
		<g>
			<path class="st3" d="M435.9,100.8h25.2v34.1h32.4v-34.1h25.2v91h-25.2v-34.6h-32.4v34.6h-25.2V100.8z"/>
			<path class="st3" d="M531.7,146.3c0-26.1,21.1-47.3,49.1-47.3s48.9,20.9,48.9,47.3c0,26.1-21.1,47.3-49.1,47.3
				S531.7,172.7,531.7,146.3z M604,146.3c0-13.1-9.5-24.6-23.4-24.6c-13.8,0-23,11.2-23,24.6c0,13.1,9.5,24.6,23.3,24.6
				C594.8,170.9,604,159.7,604,146.3z"/>
			<path class="st3" d="M631.5,100.8h26.7l15.9,52.7l17.6-52.9h21.7l17.6,52.9l15.9-52.7h26.1l-30.4,91.7h-22L702.1,140l-18.2,52.4
				h-22L631.5,100.8z"/>
			<path class="st3" d="M812.8,100.8h26.7l15.9,52.7l17.6-52.9h21.7l17.6,52.9l15.9-52.7h26.1l-30.4,91.7h-22L883.4,140l-18.2,52.4
				h-22L812.8,100.8z"/>
			<path class="st3" d="M964.1,100.8h73.2v21.5H989V136h43.7v19.9H989v14.4h48.9v21.5h-73.8V100.8z"/>
			<path class="st3" d="M1080.7,100.8h26.7l15.9,52.7l17.6-52.9h21.7l17.5,52.9l15.9-52.7h26.1l-30.4,91.7h-22l-18.3-52.4
				l-18.2,52.4h-22L1080.7,100.8z"/>
			<path class="st3" d="M1223.7,146.3c0-26.1,21.1-47.3,49.1-47.3s48.9,20.9,48.9,47.3c0,26.1-21.1,47.3-49.1,47.3
				S1223.7,172.7,1223.7,146.3z M1296,146.3c0-13.1-9.5-24.6-23.4-24.6c-13.8,0-23,11.2-23,24.6c0,13.1,9.5,24.6,23.3,24.6
				C1286.7,170.9,1296,159.7,1296,146.3z"/>
			<path class="st3" d="M1334.8,100.8h43c13.9,0,23.5,3.6,29.6,9.8c5.3,5.3,8.1,12.4,8.1,21.6c0,13.9-7.4,23.1-18.7,28l21.7,31.7
				h-29.1l-18.3-27.6h-11.1v27.6h-25.2V100.8z M1376.7,144.5c8.6,0,13.5-4.2,13.5-11.1c0-7.2-5.2-10.8-13.7-10.8h-16.5v21.8H1376.7z
				"/>
			<path class="st3" d="M1428.3,100.8h25.2v36.9l31.3-36.9h29.9l-34.5,39.1l35.6,51.9h-30.3l-22.9-33.8l-9.2,10.3v23.5h-25.2V100.8z
				"/>
		</g>
	</g>
	<g>
		<g>
			<path class="st3" d="M870.6,115.1c-2.9-0.4-4.9-2.2-4.9-5.2c0-2.9,2.4-5.1,6.2-5.1h7.3v17.5H878v-7h-5.9l-5.4,7H865L870.6,115.1z
				 M878,114.2V106h-6c-3.2,0-5,1.6-5,4c0,2.5,2.2,4.1,5.1,4.1H878z"/>
			<path class="st3" d="M884.2,109.6h1.2v8.2l7.9-8.2h1.6l-5.6,5.6l5.7,7.1h-1.5l-5-6.2l-3.1,3.1v3.1h-1.2V109.6z"/>
			<path class="st3" d="M905.6,109.6h1.1l5.2,7.3l5.2-7.3h1.1v12.7H917v-10.6l-5.1,7l-5.1-7v10.6h-1.2V109.6z"/>
			<path class="st3" d="M922.9,109.6h1.2v11.1l8.6-11.1h1.2v12.7h-1.2v-11.1l-8.6,11.1h-1.2V109.6z"/>
			<path class="st3" d="M946.1,109.6h10.6v12.7h-1.2v-11.6h-8.1v11.6h-1.2V109.6z"/>
			<path class="st3" d="M961.4,109.6h1.2v2.8c1.1-1.7,2.7-3.1,5.2-3.1c3.1,0,6.2,2.5,6.2,6.7c0,4.1-3.1,6.7-6.2,6.7
				c-2.5,0-4.2-1.4-5.2-3v6.7h-1.2V109.6z M972.7,116c0-3.3-2.3-5.5-5-5.5c-2.6,0-5.2,2.2-5.2,5.5c0,3.3,2.5,5.5,5.2,5.5
				C970.5,121.5,972.7,119.4,972.7,116z"/>
			<path class="st3" d="M976.8,118.6c0-2.6,2.3-4.1,5.6-4.1c1.8,0,3,0.2,4.2,0.5v-0.5c0-2.6-1.6-3.9-4.2-3.9c-1.5,0-2.8,0.4-4,1
				l-0.4-1.1c1.4-0.7,2.8-1.1,4.5-1.1c1.7,0,3.1,0.5,4,1.4c0.8,0.8,1.3,2,1.3,3.6v7.9h-1.2v-2.1c-0.9,1.2-2.4,2.4-4.9,2.4
				C979.1,122.6,976.8,121.3,976.8,118.6z M986.7,117.6v-1.5c-1.1-0.3-2.5-0.6-4.3-0.6c-2.7,0-4.2,1.2-4.2,3c0,1.8,1.5,2.9,3.7,2.9
				C984.4,121.5,986.7,119.9,986.7,117.6z"/>
			<path class="st3" d="M1003.6,122.3h-11.4v-12.7h1.2v11.6h8.1v-11.6h1.2v11.6h2l-0.3,4.7h-1V122.3z"/>
			<path class="st3" d="M1012.3,116.5h-3.1v5.8h-1.2v-12.7h1.2v5.8h3.1c0.3-3.3,2.6-6.1,6.2-6.1c3.8,0,6.1,3,6.1,6.7
				c0,3.6-2.4,6.7-6.2,6.7C1014.8,122.6,1012.5,119.9,1012.3,116.5z M1023.3,116c0-3.1-1.9-5.5-4.9-5.5c-3,0-4.8,2.5-4.8,5.5
				c0,3.1,1.9,5.5,4.9,5.5C1021.5,121.5,1023.3,119,1023.3,116z"/>
			<path class="st3" d="M1027.6,116c0-3.6,2.8-6.7,6.5-6.7c2.4,0,3.8,1.1,5,2.4l-0.8,0.8c-1.1-1.2-2.3-2.1-4.2-2.1
				c-2.6,0-4.8,2.1-5.1,4.8h6.7v1.1h-6.7c0.2,2.9,2.4,5.1,5.2,5.1c1.8,0,3.1-1,4.2-2.1l0.9,0.8c-1.2,1.5-2.8,2.5-5.2,2.5
				C1030.4,122.6,1027.6,119.6,1027.6,116z"/>
			<path class="st3" d="M1042.7,109.6h1.1l5.2,7.3l5.2-7.3h1.1v12.7h-1.2v-10.6l-5.1,7l-5.1-7v10.6h-1.2V109.6z"/>
			<path class="st3" d="M1058.6,116c0-3.6,2.8-6.7,6.6-6.7c3.8,0,6.5,3,6.5,6.7c0,3.6-2.8,6.7-6.6,6.7
				C1061.4,122.6,1058.6,119.6,1058.6,116z M1070.4,116c0-3.1-2.4-5.5-5.2-5.5c-2.9,0-5.2,2.5-5.2,5.5c0,3.1,2.3,5.5,5.2,5.5
				C1068,121.5,1070.4,119,1070.4,116z"/>
			<path class="st3" d="M1075.3,109.6h1.6v2.1h-1.6V109.6z M1075.3,120.2h1.6v2.1h-1.6V120.2z"/>
		</g>
	</g>
	<g>
		<g>
			<path class="st3" d="M786.1,147.9h8.7v11.8H806v-11.8h8.7v31.5H806v-12h-11.2v12h-8.7V147.9z"/>
			<path class="st3" d="M819.3,163.6c0-9,7.3-16.4,17-16.4s16.9,7.2,16.9,16.4c0,9-7.3,16.4-17,16.4
				C826.5,180,819.3,172.7,819.3,163.6z M844.3,163.6c0-4.5-3.3-8.5-8.1-8.5c-4.8,0-8,3.9-8,8.5c0,4.5,3.3,8.5,8.1,8.5
				C841.1,172.1,844.3,168.2,844.3,163.6z"/>
			<path class="st3" d="M853.8,147.9h9.2l5.5,18.2l6.1-18.3h7.5l6.1,18.3l5.5-18.2h9l-10.5,31.7h-7.6l-6.3-18.1l-6.3,18.1h-7.6
				L853.8,147.9z"/>
			<path class="st3" d="M916.5,147.9h9.2l5.5,18.2l6.1-18.3h7.5l6.1,18.3l5.5-18.2h9l-10.5,31.7h-7.6l-6.3-18.1l-6.3,18.1h-7.6
				L916.5,147.9z"/>
			<path class="st3" d="M968.9,147.9h25.3v7.4h-16.7v4.8h15.1v6.9h-15.1v5h16.9v7.4h-25.6V147.9z"/>
			<path class="st3" d="M1009.3,147.9h9.2l5.5,18.2l6.1-18.3h7.5l6.1,18.3l5.5-18.2h9l-10.5,31.7h-7.6l-6.3-18.1l-6.3,18.1h-7.6
				L1009.3,147.9z"/>
			<path class="st3" d="M1058.8,163.6c0-9,7.3-16.4,17-16.4c9.7,0,16.9,7.2,16.9,16.4c0,9-7.3,16.4-17,16.4
				S1058.8,172.7,1058.8,163.6z M1083.8,163.6c0-4.5-3.3-8.5-8.1-8.5c-4.8,0-8,3.9-8,8.5c0,4.5,3.3,8.5,8.1,8.5
				C1080.6,172.1,1083.8,168.2,1083.8,163.6z"/>
			<path class="st3" d="M1097.3,147.9h14.9c4.8,0,8.1,1.3,10.3,3.4c1.8,1.8,2.8,4.3,2.8,7.5c0,4.8-2.6,8-6.5,9.7l7.5,11h-10.1
				l-6.3-9.5h-3.8v9.5h-8.7V147.9z M1111.8,163c3,0,4.7-1.4,4.7-3.8c0-2.5-1.8-3.7-4.7-3.7h-5.7v7.6H1111.8z"/>
			<path class="st3" d="M1129.6,147.9h8.7v12.8l10.8-12.8h10.3l-11.9,13.5l12.3,18h-10.5l-7.9-11.7l-3.2,3.6v8.1h-8.7V147.9z"/>
		</g>
	</g>
</g>

</svg>
