<?xml version="1.0" encoding="utf-8"?>
<!-- Generator: Adobe Illustrator 18.1.1, SVG Export Plug-In . SVG Version: 6.00 Build 0)  -->
<svg version="1.1" xmlns="http://www.w3.org/2000/svg" xmlns:xlink="http://www.w3.org/1999/xlink" x="0px" y="0px"
	 viewBox="0 0 1920 302.4" style="enable-background:new 0 0 1920 302.4;" xml:space="preserve">
<style type="text/css">
	.st0{fill:#00F9F8;}
	.st1{opacity:0.1;}
	.st2{opacity:0.5;fill:#4D4F4E;}
	.st3{fill:#4D4F4E;}
</style>
<g id="mobile-team-title">
	<g class="st1">
		<g>
			<path class="st3" d="M833.7,147V90.2h26.8c8.2,0,14.4,2,18.4,6.1c3.3,3.4,5,7.9,5,13.5c0,4.2-1,7.7-3.1,10.6
				c-2,2.9-4.9,5.1-8.5,6.7l13.5,19.9h-18.1l-11.4-17.3h-6.9V147H833.7z M849.5,117.5h10.4c2.7,0,4.7-0.6,6.2-1.8
				c1.5-1.2,2.2-2.9,2.2-5c0-2.2-0.7-3.8-2.2-4.9c-1.5-1.1-3.6-1.7-6.3-1.7h-10.3V117.5z"/>
			<path class="st3" d="M890.1,118.6c0-4,0.8-7.8,2.4-11.5c1.6-3.6,3.7-6.8,6.4-9.4c2.7-2.6,5.9-4.7,9.7-6.3
				c3.8-1.6,7.9-2.3,12.2-2.3c4.3,0,8.3,0.8,12.1,2.3s7,3.6,9.7,6.3c2.7,2.6,4.8,5.8,6.3,9.4c1.5,3.6,2.3,7.5,2.3,11.5
				c0,4-0.8,7.8-2.3,11.5c-1.6,3.6-3.7,6.8-6.4,9.4c-2.7,2.6-5.9,4.7-9.7,6.3c-3.8,1.6-7.8,2.3-12.1,2.3c-5.7,0-10.9-1.3-15.6-3.9
				c-4.7-2.6-8.3-6.2-10.9-10.7C891.4,129,890.1,124,890.1,118.6z M906.2,118.6c0,4.2,1.4,7.8,4.1,10.8c2.7,3,6.2,4.5,10.4,4.5
				c4.2,0,7.7-1.5,10.4-4.5c2.7-3,4-6.6,4-10.9c0-4.2-1.4-7.8-4.1-10.8c-2.7-3-6.2-4.5-10.5-4.5c-4.2,0-7.6,1.5-10.3,4.5
				C907.6,110.7,906.2,114.3,906.2,118.6z"/>
			<path class="st3" d="M957.4,118.6c0-4.1,0.8-8,2.3-11.6c1.5-3.6,3.6-6.8,6.2-9.4c2.6-2.6,5.8-4.7,9.5-6.2
				c3.7-1.5,7.7-2.3,11.9-2.3c10.1,0,18.1,4,23.8,11.9l-11.5,9c-3.5-4.4-7.7-6.6-12.5-6.6c-3.9,0-7.2,1.5-9.7,4.4
				c-2.5,3-3.8,6.6-3.8,10.9c0,4.4,1.3,8,3.8,10.9c2.5,2.9,5.8,4.4,9.7,4.4c2.8,0,5.1-0.6,7.1-1.7c1.9-1.2,3.9-2.9,5.8-5.2l11.8,8.5
				c-1.9,2.6-4,4.8-6.1,6.6c-2.2,1.8-4.9,3.2-8.1,4.4c-3.3,1.1-6.9,1.7-10.9,1.7c-5.4,0-10.3-1.3-14.7-3.8c-4.4-2.5-8-6-10.6-10.6
				C958.7,129.2,957.4,124.2,957.4,118.6z"/>
			<path class="st3" d="M1018.6,147V90.2h15.7v23l19.6-23h18.6l-21.5,24.4l22.2,32.3h-18.9l-14.3-21.1l-5.8,6.4V147H1018.6z"/>
			<path class="st3" d="M1074.5,169c0-7.4,4-12.9,12-16.5c-2.6-3.7-3.9-7.5-3.9-11.4c0-4.6,1.7-8.4,5.1-11.6
				c3.4-3.2,7.9-4.8,13.5-4.8c5.3,0,9.5,1.5,12.7,4.4c3.2,2.9,4.8,6.7,4.8,11.2c0,6.6-3.8,11.7-11.5,15.3l6.5,6.4
				c1.8-2.6,3.7-5.7,5.6-9.3l10.8,5.4c-2.6,4.8-5.2,9-7.8,12.4l7.9,7.7l-11.1,7.8l-6-6.1c-5.3,3.9-11.1,5.9-17.5,5.9
				c-6.2,0-11.2-1.5-15.2-4.5S1074.5,174.3,1074.5,169z M1090.8,168.3c0,1.7,0.6,3.1,1.9,4.2c1.3,1.1,2.9,1.6,5,1.6
				c2.1,0,4.5-0.8,7-2.5l-9.7-9.8C1092.2,163.5,1090.8,165.7,1090.8,168.3z M1096.4,141.7c0,2,1,4.2,3,6.7c2.1-0.9,3.7-2,4.7-3.2
				c1-1.2,1.5-2.6,1.5-4.2c0-1.4-0.4-2.6-1.3-3.4c-0.8-0.9-1.9-1.3-3.3-1.3c-1.4,0-2.5,0.5-3.4,1.5
				C1096.8,138.8,1096.4,140.1,1096.4,141.7z"/>
			<path class="st3" d="M833.7,213.2v-59h27.8c8.6,0,15,2.1,19.2,6.4c3.5,3.5,5.2,8.2,5.2,14.1c0,4.3-1.1,8-3.2,11
				c-2.1,3-5.1,5.3-8.9,6.9l14.1,20.6h-18.9l-11.9-17.9h-7.2v17.9H833.7z M850.1,182.6h10.8c2.8,0,4.9-0.6,6.5-1.9
				c1.5-1.3,2.3-3,2.3-5.2c0-2.2-0.8-4-2.3-5.1c-1.5-1.2-3.7-1.8-6.5-1.8h-10.7V182.6z"/>
			<path class="st3" d="M892.3,183.7c0-4.2,0.8-8.1,2.4-11.9c1.6-3.8,3.8-7,6.6-9.8s6.2-4.9,10.1-6.5c4-1.6,8.2-2.4,12.6-2.4
				c4.5,0,8.7,0.8,12.6,2.4c3.9,1.6,7.3,3.8,10,6.5c2.8,2.7,5,6,6.6,9.8c1.6,3.8,2.4,7.8,2.4,12c0,4.2-0.8,8.1-2.4,11.9
				c-1.6,3.8-3.8,7-6.6,9.8c-2.8,2.7-6.2,4.9-10.1,6.5c-3.9,1.6-8.1,2.4-12.6,2.4c-6,0-11.4-1.4-16.2-4.1
				c-4.9-2.7-8.6-6.4-11.4-11.1C893.7,194.5,892.3,189.4,892.3,183.7z M909.1,183.7c0,4.4,1.4,8.1,4.3,11.2
				c2.9,3.1,6.5,4.7,10.8,4.7c4.4,0,8-1.5,10.8-4.6c2.8-3.1,4.2-6.9,4.2-11.3c0-4.4-1.4-8.1-4.3-11.2c-2.9-3.1-6.5-4.7-10.9-4.7
				c-4.4,0-7.9,1.5-10.7,4.6C910.5,175.5,909.1,179.3,909.1,183.7z"/>
			<path class="st3" d="M964.3,213.2v-59h16.3v44.7h28.6v14.4H964.3z"/>
			<path class="st3" d="M1016.2,213.2v-59h16.3v44.7h28.6v14.4H1016.2z"/>
		</g>
	</g>
	<g>
		<g>
			<path class="st3" d="M926,125.9v-8.7h0.6v4h5.5v-4h0.6v8.7h-0.6v-4.1h-5.5v4.1H926z"/>
			<path class="st3" d="M934.8,124c0-0.6,0.3-1.1,0.8-1.5c0.5-0.4,1.2-0.5,2-0.5c0.7,0,1.4,0.1,2.1,0.3V122c0-0.6-0.2-1.1-0.5-1.4
				c-0.4-0.3-0.9-0.5-1.5-0.5c-0.7,0-1.3,0.2-2,0.5l-0.2-0.5c0.8-0.4,1.5-0.5,2.2-0.5c0.9,0,1.5,0.2,2,0.7c0.4,0.4,0.6,1,0.6,1.8
				v3.9h-0.6v-1.1c-0.2,0.3-0.6,0.6-1,0.9c-0.4,0.2-0.9,0.3-1.4,0.3c-0.4,0-0.8-0.1-1.2-0.2s-0.7-0.4-0.9-0.7
				C934.9,124.8,934.8,124.5,934.8,124z M935.4,124c0,0.5,0.2,0.8,0.5,1.1c0.3,0.3,0.8,0.4,1.3,0.4c0.7,0,1.2-0.2,1.7-0.5
				c0.5-0.4,0.7-0.8,0.7-1.4v-0.7c-0.7-0.2-1.4-0.3-2.1-0.3c-0.7,0-1.2,0.1-1.5,0.4C935.6,123.2,935.4,123.6,935.4,124z"/>
			<path class="st3" d="M942.4,125.9v-6.3h0.6v5.8h3.5v-5.8h0.6v5.8h3.5v-5.8h0.6v6.3H942.4z"/>
			<path class="st3" d="M953,124c0-0.6,0.3-1.1,0.8-1.5c0.5-0.4,1.2-0.5,2-0.5c0.7,0,1.4,0.1,2.1,0.3V122c0-0.6-0.2-1.1-0.5-1.4
				c-0.4-0.3-0.9-0.5-1.5-0.5c-0.7,0-1.3,0.2-2,0.5l-0.2-0.5c0.8-0.4,1.5-0.5,2.2-0.5c0.9,0,1.5,0.2,2,0.7c0.4,0.4,0.6,1,0.6,1.8
				v3.9h-0.6v-1.1c-0.2,0.3-0.6,0.6-1,0.9c-0.4,0.2-0.9,0.3-1.4,0.3c-0.4,0-0.8-0.1-1.2-0.2s-0.7-0.4-0.9-0.7
				C953.1,124.8,953,124.5,953,124z M953.6,124c0,0.5,0.2,0.8,0.5,1.1c0.3,0.3,0.8,0.4,1.3,0.4c0.7,0,1.2-0.2,1.7-0.5
				c0.5-0.4,0.7-0.8,0.7-1.4v-0.7c-0.7-0.2-1.4-0.3-2.1-0.3c-0.7,0-1.2,0.1-1.5,0.4C953.8,123.2,953.6,123.6,953.6,124z"/>
			<path class="st3" d="M964.3,125.9v-6.3h0.6v4l3.9-4h0.8l-2.8,2.8l2.8,3.5h-0.8l-2.5-3.1l-1.5,1.5v1.5H964.3z"/>
			<path class="st3" d="M970.7,122.7c0-0.4,0.1-0.9,0.2-1.3c0.2-0.4,0.4-0.8,0.7-1.1c0.3-0.3,0.6-0.5,1-0.7c0.4-0.2,0.8-0.3,1.3-0.3
				c0.6,0,1.2,0.1,1.7,0.5c0.5,0.3,0.9,0.7,1.2,1.2c0.3,0.5,0.4,1.1,0.4,1.6c0,0.6-0.1,1.1-0.4,1.6c-0.3,0.5-0.7,0.9-1.2,1.2
				c-0.5,0.3-1.1,0.5-1.7,0.5c-0.5,0-0.9-0.1-1.3-0.3c-0.4-0.2-0.7-0.4-1-0.7c-0.3-0.3-0.5-0.6-0.7-1.1
				C970.8,123.6,970.7,123.2,970.7,122.7z M971.4,122.7c0,0.8,0.3,1.4,0.8,1.9c0.5,0.5,1.1,0.8,1.8,0.8c0.5,0,0.9-0.1,1.3-0.4
				c0.4-0.2,0.7-0.6,0.9-1c0.2-0.4,0.4-0.9,0.4-1.4c0-0.8-0.3-1.4-0.8-1.9c-0.5-0.5-1.1-0.8-1.8-0.8c-0.5,0-0.9,0.1-1.3,0.4
				c-0.4,0.2-0.7,0.6-0.9,1C971.5,121.8,971.4,122.2,971.4,122.7z"/>
			<path class="st3" d="M979.1,125.9v-6.3h0.6l2.6,3.6l2.6-3.6h0.5v6.3h-0.6v-5.3l-2.5,3.5l-2.5-3.5v5.3H979.1z"/>
			<path class="st3" d="M987.1,124c0-0.6,0.3-1.1,0.8-1.5c0.5-0.4,1.2-0.5,2-0.5c0.7,0,1.4,0.1,2.1,0.3V122c0-0.6-0.2-1.1-0.5-1.4
				c-0.4-0.3-0.9-0.5-1.5-0.5c-0.7,0-1.3,0.2-2,0.5l-0.2-0.5c0.8-0.4,1.5-0.5,2.2-0.5c0.9,0,1.5,0.2,2,0.7c0.4,0.4,0.6,1,0.6,1.8
				v3.9H992v-1.1c-0.2,0.3-0.6,0.6-1,0.9c-0.4,0.2-0.9,0.3-1.4,0.3c-0.4,0-0.8-0.1-1.2-0.2c-0.4-0.1-0.7-0.4-0.9-0.7
				C987.2,124.8,987.1,124.5,987.1,124z M987.8,124c0,0.5,0.2,0.8,0.5,1.1c0.3,0.3,0.8,0.4,1.3,0.4c0.7,0,1.2-0.2,1.7-0.5
				c0.5-0.4,0.7-0.8,0.7-1.4v-0.7c-0.7-0.2-1.4-0.3-2.1-0.3c-0.7,0-1.2,0.1-1.5,0.4S987.8,123.6,987.8,124z"/>
			<path class="st3" d="M994.7,125.9v-6.3h0.6v2.8h4.2v-2.8h0.6v6.3h-0.6v-3h-4.2v3H994.7z"/>
			<path class="st3" d="M1001.5,125.3h0.8c0.6-1,0.9-2.5,0.9-4.4v-1.3h4.2v5.8h1l-0.1,2.3h-0.5v-1.8h-5.8l-0.1,1.8h-0.5V125.3z
				 M1003,125.3h3.9v-5.2h-3v1.1c0,0.8-0.1,1.6-0.2,2.3S1003.2,124.9,1003,125.3z"/>
			<path class="st3" d="M1009.5,124c0-0.6,0.3-1.1,0.8-1.5c0.5-0.4,1.2-0.5,2-0.5c0.7,0,1.4,0.1,2.1,0.3V122c0-0.6-0.2-1.1-0.5-1.4
				c-0.4-0.3-0.9-0.5-1.5-0.5c-0.7,0-1.3,0.2-2,0.5l-0.2-0.5c0.8-0.4,1.5-0.5,2.2-0.5c0.9,0,1.5,0.2,2,0.7c0.4,0.4,0.6,1,0.6,1.8
				v3.9h-0.6v-1.1c-0.2,0.3-0.6,0.6-1,0.9c-0.4,0.2-0.9,0.3-1.4,0.3c-0.4,0-0.8-0.1-1.2-0.2c-0.4-0.1-0.7-0.4-0.9-0.7
				C1009.6,124.8,1009.5,124.5,1009.5,124z M1010.1,124c0,0.5,0.2,0.8,0.5,1.1c0.3,0.3,0.8,0.4,1.3,0.4c0.7,0,1.2-0.2,1.7-0.5
				c0.5-0.4,0.7-0.8,0.7-1.4v-0.7c-0.7-0.2-1.4-0.3-2.1-0.3c-0.7,0-1.2,0.1-1.5,0.4S1010.1,123.6,1010.1,124z"/>
			<path class="st3" d="M1017,120.6v-1.1h0.8v1.1H1017z M1017,125.9v-1.1h0.8v1.1H1017z"/>
		</g>
	</g>
	<g>
		<g>
			<path class="st3" d="M844.8,154.1v-15.6h4.3v5.9h5.5v-5.9h4.3v15.6h-4.3v-5.9h-5.5v5.9H844.8z"/>
			<path class="st3" d="M861.2,146.3c0-1.1,0.2-2.2,0.6-3.2c0.4-1,1-1.9,1.8-2.6c0.7-0.7,1.6-1.3,2.7-1.7c1-0.4,2.2-0.6,3.3-0.6
				c1.2,0,2.3,0.2,3.3,0.6c1,0.4,1.9,1,2.7,1.7c0.7,0.7,1.3,1.6,1.7,2.6c0.4,1,0.6,2.1,0.6,3.2c0,1.1-0.2,2.2-0.6,3.2
				c-0.4,1-1,1.9-1.8,2.6c-0.7,0.7-1.6,1.3-2.7,1.7c-1,0.4-2.2,0.6-3.3,0.6c-1.6,0-3-0.4-4.3-1.1c-1.3-0.7-2.3-1.7-3-2.9
				C861.5,149.2,861.2,147.8,861.2,146.3z M865.6,146.3c0,1.2,0.4,2.1,1.1,3c0.8,0.8,1.7,1.2,2.9,1.2c1.2,0,2.1-0.4,2.9-1.2
				c0.7-0.8,1.1-1.8,1.1-3c0-1.2-0.4-2.1-1.1-3c-0.8-0.8-1.7-1.2-2.9-1.2c-1.2,0-2.1,0.4-2.8,1.2C866,144.1,865.6,145.1,865.6,146.3
				z"/>
			<path class="st3" d="M879.2,138.5h4.6l2.7,9l3-9.1h3.7l3,9.1l2.7-9h4.5l-5.2,15.7h-3.8l-3.1-9l-3.1,9h-3.8L879.2,138.5z"/>
			<path class="st3" d="M910.2,138.5h4.6l2.7,9l3-9.1h3.7l3,9.1l2.7-9h4.5l-5.2,15.7h-3.8l-3.1-9l-3.1,9h-3.8L910.2,138.5z"/>
			<path class="st3" d="M936.1,154.1v-15.6h12.5v3.7h-8.3v2.4h7.5v3.4h-7.5v2.5h8.4v3.7H936.1z"/>
			<path class="st3" d="M957.1,154.1v-15.6h7.4c2.3,0,4,0.6,5.1,1.7c0.9,0.9,1.4,2.2,1.4,3.7c0,1.1-0.3,2.1-0.8,2.9
				c-0.6,0.8-1.3,1.4-2.3,1.8l3.7,5.5h-5l-3.1-4.7h-1.9v4.7H957.1z M961.5,146h2.8c0.7,0,1.3-0.2,1.7-0.5c0.4-0.3,0.6-0.8,0.6-1.4
				c0-0.6-0.2-1-0.6-1.4c-0.4-0.3-1-0.5-1.7-0.5h-2.8V146z"/>
			<path class="st3" d="M972.6,146.3c0-1.1,0.2-2.2,0.6-3.2c0.4-1,1-1.9,1.8-2.6c0.7-0.7,1.6-1.3,2.7-1.7c1-0.4,2.2-0.6,3.3-0.6
				c1.2,0,2.3,0.2,3.3,0.6c1,0.4,1.9,1,2.7,1.7c0.7,0.7,1.3,1.6,1.7,2.6c0.4,1,0.6,2.1,0.6,3.2c0,1.1-0.2,2.2-0.6,3.2
				c-0.4,1-1,1.9-1.8,2.6c-0.7,0.7-1.6,1.3-2.7,1.7c-1,0.4-2.2,0.6-3.3,0.6c-1.6,0-3-0.4-4.3-1.1c-1.3-0.7-2.3-1.7-3-2.9
				C973,149.2,972.6,147.8,972.6,146.3z M977,146.3c0,1.2,0.4,2.1,1.1,3c0.8,0.8,1.7,1.2,2.9,1.2c1.2,0,2.1-0.4,2.9-1.2
				c0.7-0.8,1.1-1.8,1.1-3c0-1.2-0.4-2.1-1.1-3c-0.8-0.8-1.7-1.2-2.9-1.2c-1.2,0-2.1,0.4-2.8,1.2C977.4,144.1,977,145.1,977,146.3z"
				/>
			<path class="st3" d="M991.1,146.3c0-1.1,0.2-2.2,0.6-3.2c0.4-1,1-1.9,1.7-2.6c0.7-0.7,1.6-1.3,2.6-1.7c1-0.4,2.1-0.6,3.3-0.6
				c2.8,0,5,1.1,6.5,3.3l-3.2,2.5c-1-1.2-2.1-1.8-3.4-1.8c-1.1,0-2,0.4-2.7,1.2c-0.7,0.8-1,1.8-1,3c0,1.2,0.3,2.2,1,3
				c0.7,0.8,1.6,1.2,2.7,1.2c0.8,0,1.4-0.2,1.9-0.5c0.5-0.3,1.1-0.8,1.6-1.4l3.3,2.3c-0.5,0.7-1.1,1.3-1.7,1.8
				c-0.6,0.5-1.3,0.9-2.2,1.2c-0.9,0.3-1.9,0.5-3,0.5c-1.5,0-2.8-0.3-4-1c-1.2-0.7-2.2-1.7-2.9-2.9
				C991.5,149.2,991.1,147.8,991.1,146.3z"/>
			<path class="st3" d="M1007.9,154.1v-15.6h4.3v6.3l5.4-6.3h5.1l-5.9,6.7l6.1,8.9h-5.2l-3.9-5.8l-1.6,1.8v4H1007.9z"/>
			<path class="st3" d="M1023.3,149.9c0-2,1.1-3.4,3.2-4.4c-0.7-1-1-2-1-3c0-1.2,0.4-2.2,1.3-3.1c0.9-0.8,2.1-1.3,3.6-1.3
				c1.4,0,2.5,0.4,3.4,1.2c0.8,0.8,1.3,1.8,1.3,3c0,1.8-1,3.1-3,4l1.7,1.7c0.5-0.7,1-1.5,1.5-2.5l2.9,1.4c-0.7,1.3-1.4,2.4-2.1,3.3
				l2.1,2l-2.9,2.1l-1.6-1.6c-1.4,1-2.9,1.6-4.6,1.6c-1.6,0-3-0.4-4-1.2C1023.8,152.4,1023.3,151.3,1023.3,149.9z M1027.6,149.7
				c0,0.5,0.2,0.8,0.5,1.1c0.3,0.3,0.8,0.4,1.3,0.4c0.6,0,1.2-0.2,1.8-0.7l-2.6-2.6C1027.9,148.4,1027.6,149,1027.6,149.7z
				 M1029,142.7c0,0.5,0.3,1.1,0.8,1.8c0.6-0.2,1-0.5,1.3-0.8c0.3-0.3,0.4-0.7,0.4-1.1c0-0.4-0.1-0.7-0.3-0.9
				c-0.2-0.2-0.5-0.3-0.9-0.3c-0.4,0-0.7,0.1-0.9,0.4C1029.2,141.9,1029,142.2,1029,142.7z"/>
			<path class="st3" d="M1039.7,154.1v-15.6h7.4c2.3,0,4,0.6,5.1,1.7c0.9,0.9,1.4,2.2,1.4,3.7c0,1.1-0.3,2.1-0.8,2.9
				c-0.6,0.8-1.3,1.4-2.3,1.8l3.7,5.5h-5l-3.1-4.7h-1.9v4.7H1039.7z M1044,146h2.8c0.7,0,1.3-0.2,1.7-0.5c0.4-0.3,0.6-0.8,0.6-1.4
				c0-0.6-0.2-1-0.6-1.4c-0.4-0.3-1-0.5-1.7-0.5h-2.8V146z"/>
			<path class="st3" d="M1055.2,146.3c0-1.1,0.2-2.2,0.6-3.2c0.4-1,1-1.9,1.8-2.6c0.7-0.7,1.6-1.3,2.7-1.7c1-0.4,2.2-0.6,3.3-0.6
				s2.3,0.2,3.3,0.6c1,0.4,1.9,1,2.7,1.7c0.7,0.7,1.3,1.6,1.7,2.6c0.4,1,0.6,2.1,0.6,3.2c0,1.1-0.2,2.2-0.6,3.2
				c-0.4,1-1,1.9-1.8,2.6c-0.7,0.7-1.6,1.3-2.7,1.7c-1,0.4-2.2,0.6-3.3,0.6c-1.6,0-3-0.4-4.3-1.1c-1.3-0.7-2.3-1.7-3-2.9
				C1055.5,149.2,1055.2,147.8,1055.2,146.3z M1059.6,146.3c0,1.2,0.4,2.1,1.1,3c0.8,0.8,1.7,1.2,2.9,1.2c1.2,0,2.1-0.4,2.9-1.2
				c0.7-0.8,1.1-1.8,1.1-3c0-1.2-0.4-2.1-1.1-3c-0.8-0.8-1.7-1.2-2.9-1.2c-1.2,0-2.1,0.4-2.8,1.2
				C1060,144.1,1059.6,145.1,1059.6,146.3z"/>
			<path class="st3" d="M1074.2,154.1v-15.6h4.3v11.8h7.6v3.8H1074.2z"/>
			<path class="st3" d="M1087.9,154.1v-15.6h4.3v11.8h7.6v3.8H1087.9z"/>
		</g>
	</g>
</g>
<g id="mobile-about-team-title">
	<g class="st1">
		<g>
			<path class="st3" d="M829.8,144.3V91.3h14.7v20h18.9v-20H878v53.1h-14.7v-20.2h-18.9v20.2H829.8z"/>
			<path class="st3" d="M885.6,117.8c0-3.8,0.7-7.3,2.2-10.7c1.5-3.4,3.5-6.3,6-8.8c2.5-2.5,5.6-4.4,9.1-5.9
				c3.6-1.5,7.3-2.2,11.4-2.2c4,0,7.8,0.7,11.3,2.2c3.5,1.4,6.5,3.4,9,5.9c2.5,2.5,4.5,5.4,5.9,8.8c1.4,3.4,2.2,7,2.2,10.8
				c0,3.7-0.7,7.3-2.2,10.7c-1.5,3.4-3.5,6.3-6,8.8c-2.5,2.5-5.5,4.4-9.1,5.9c-3.5,1.5-7.3,2.2-11.3,2.2c-5.4,0-10.2-1.2-14.6-3.7
				c-4.4-2.5-7.8-5.8-10.2-10C886.8,127.5,885.6,122.9,885.6,117.8z M900.7,117.8c0,3.9,1.3,7.3,3.8,10.1c2.6,2.8,5.8,4.2,9.7,4.2
				c4,0,7.2-1.4,9.7-4.2c2.5-2.8,3.8-6.2,3.8-10.2c0-3.9-1.3-7.3-3.8-10.1c-2.6-2.8-5.8-4.2-9.8-4.2c-3.9,0-7.1,1.4-9.7,4.2
				S900.7,113.8,900.7,117.8z"/>
			<path class="st3" d="M946.8,91.3h15.5l9.2,30.7l10.3-30.9h12.7l10.2,30.9l10.3-30.7h14.2l-17.7,53.4h-12.8L988,114.2l-10.6,30.5
				h-12.8L946.8,91.3z"/>
			<g>
				<g>
					<path class="st0" d="M980.5,91.3h15.5l8.2,30.7l10.3-30.9h14.7l9.2,30.9l9.3-30.7h15.2l-17.7,53.4h-12.8l-10.7-30.5l-9.6,30.5
						h-13.8L980.5,91.3z"/>
				</g>
			</g>
			<path class="st3" d="M1066.2,144.3V91.3h42.7v12.5h-28.1v8h25.5v11.6h-25.5v8.4h28.5v12.5H1066.2z"/>
			<path class="st3" d="M828.9,151.3h15.5l9.2,30.7l10.3-30.9h12.7l10.2,30.9l9.3-30.7h15.2l-17.7,53.4h-12.8L870,174.2l-10.6,30.5
				h-12.8L828.9,151.3z"/>
			<path class="st3" d="M915.3,177.8c0-3.8,0.7-7.3,2.2-10.7c1.5-3.4,3.5-6.3,6-8.8c2.5-2.5,5.6-4.4,9.1-5.9
				c3.6-1.5,7.3-2.2,11.4-2.2c4,0,7.8,0.7,11.3,2.2c3.5,1.4,6.5,3.4,9,5.9c2.5,2.5,4.5,5.4,5.9,8.8c1.4,3.4,2.2,7,2.2,10.8
				c0,3.7-0.7,7.3-2.2,10.7c-1.5,3.4-3.5,6.3-6,8.8c-2.5,2.5-5.5,4.4-9.1,5.9c-3.5,1.5-7.3,2.2-11.3,2.2c-5.4,0-10.2-1.2-14.6-3.7
				c-4.4-2.5-7.8-5.8-10.2-10C916.5,187.5,915.3,182.9,915.3,177.8z M930.3,177.8c0,3.9,1.3,7.3,3.8,10.1c2.6,2.8,5.8,4.2,9.7,4.2
				c4,0,7.2-1.4,9.7-4.2c2.5-2.8,3.8-6.2,3.8-10.2c0-3.9-1.3-7.3-3.8-10.1c-2.6-2.8-5.8-4.2-9.8-4.2c-3.9,0-7.1,1.4-9.7,4.2
				S930.3,173.8,930.3,177.8z"/>
			<path class="st3" d="M980,204.3v-53.1h25c7.7,0,13.4,1.9,17.2,5.7c3.1,3.2,4.7,7.4,4.7,12.7c0,3.9-1,7.2-2.9,9.9
				c-1.9,2.7-4.6,4.8-8,6.2l12.7,18.6h-17l-10.7-16.1h-6.4v16.1H980z M994.7,176.8h9.7c2.5,0,4.4-0.6,5.8-1.7
				c1.4-1.1,2.1-2.7,2.1-4.7c0-2-0.7-3.6-2.1-4.6c-1.4-1.1-3.3-1.6-5.9-1.6h-9.6V176.8z"/>
			<path class="st3" d="M1034.5,204.3v-53.1h14.7v21.5l18.3-21.5h17.4l-20.1,22.8l20.8,30.2h-17.7l-13.3-19.7l-5.4,6v13.7H1034.5z"
				/>
		</g>
	</g>
	<g>
		<g>
			<path class="st3" d="M897.8,121.6c-1.7-0.2-2.9-1.3-2.9-3c0-1.7,1.4-3,3.6-3h4.3v10.2h-0.8v-4.1h-3.5l-3.1,4.1h-1L897.8,121.6z
				 M902.1,121.1v-4.7h-3.5c-1.9,0-2.9,0.9-2.9,2.3c0,1.5,1.3,2.4,3,2.4H902.1z"/>
			<path class="st3" d="M905.7,118.4h0.7v4.8l4.6-4.8h0.9l-3.2,3.3l3.4,4.1h-0.9l-2.9-3.6l-1.8,1.8v1.8h-0.7V118.4z"/>
			<path class="st3" d="M918.2,118.4h0.6l3,4.3l3-4.3h0.6v7.4h-0.7v-6.2l-3,4.1l-3-4.1v6.2h-0.7V118.4z"/>
			<path class="st3" d="M928.3,118.4h0.7v6.5l5-6.5h0.7v7.4H934v-6.5l-5,6.5h-0.7V118.4z"/>
			<path class="st3" d="M941.8,118.4h6.2v7.4h-0.7v-6.8h-4.8v6.8h-0.7V118.4z"/>
			<path class="st3" d="M950.7,118.4h0.7v1.7c0.6-1,1.6-1.8,3.1-1.8c1.8,0,3.6,1.4,3.6,3.9c0,2.4-1.8,3.9-3.6,3.9
				c-1.5,0-2.4-0.8-3.1-1.8v3.9h-0.7V118.4z M957.3,122.1c0-2-1.4-3.2-2.9-3.2c-1.5,0-3,1.3-3,3.2c0,1.9,1.5,3.2,3,3.2
				C956,125.3,957.3,124.2,957.3,122.1z"/>
			<path class="st3" d="M959.7,123.7c0-1.5,1.3-2.4,3.3-2.4c1,0,1.7,0.1,2.5,0.3v-0.3c0-1.5-0.9-2.3-2.4-2.3c-0.9,0-1.6,0.2-2.3,0.6
				l-0.3-0.6c0.8-0.4,1.6-0.6,2.6-0.6c1,0,1.8,0.3,2.3,0.8c0.5,0.5,0.8,1.2,0.8,2.1v4.6h-0.7v-1.2c-0.5,0.7-1.4,1.4-2.8,1.4
				C961.1,126,959.7,125.2,959.7,123.7z M965.4,123.1v-0.8c-0.6-0.2-1.5-0.3-2.5-0.3c-1.6,0-2.4,0.7-2.4,1.8c0,1.1,0.9,1.7,2.1,1.7
				C964.1,125.4,965.4,124.4,965.4,123.1z"/>
			<path class="st3" d="M975.3,125.9h-6.6v-7.4h0.7v6.8h4.8v-6.8h0.7v6.8h1.2l-0.1,2.7h-0.6V125.9z"/>
			<path class="st3" d="M980.4,122.4h-1.8v3.4h-0.7v-7.4h0.7v3.4h1.8c0.1-1.9,1.5-3.5,3.6-3.5c2.2,0,3.6,1.8,3.6,3.9
				c0,2.1-1.4,3.9-3.6,3.9C981.9,126,980.5,124.4,980.4,122.4z M986.8,122.1c0-1.8-1.1-3.2-2.8-3.2c-1.8,0-2.8,1.4-2.8,3.2
				c0,1.8,1.1,3.2,2.8,3.2C985.8,125.4,986.8,123.9,986.8,122.1z"/>
			<path class="st3" d="M989.3,122.2c0-2.1,1.6-3.9,3.8-3.9c1.4,0,2.2,0.7,2.9,1.4l-0.5,0.5c-0.6-0.7-1.4-1.2-2.5-1.2
				c-1.5,0-2.8,1.2-3,2.8h3.9v0.6h-3.9c0.1,1.7,1.4,3,3.1,3c1,0,1.8-0.6,2.5-1.3l0.5,0.5c-0.7,0.9-1.7,1.5-3,1.5
				C990.9,126,989.3,124.3,989.3,122.2z"/>
			<path class="st3" d="M998.1,118.4h0.6l3,4.3l3-4.3h0.6v7.4h-0.7v-6.2l-3,4.1l-3-4.1v6.2h-0.7V118.4z"/>
			<path class="st3" d="M1007.4,122.1c0-2.1,1.6-3.9,3.8-3.9c2.2,0,3.8,1.8,3.8,3.9c0,2.1-1.6,3.9-3.8,3.9
				C1009,126,1007.4,124.3,1007.4,122.1z M1014.2,122.1c0-1.8-1.4-3.2-3.1-3.2s-3,1.4-3,3.2c0,1.8,1.3,3.2,3.1,3.2
				C1012.9,125.4,1014.2,123.9,1014.2,122.1z"/>
			<path class="st3" d="M1017.1,118.4h1v1.2h-1V118.4z M1017.1,124.6h1v1.2h-1V124.6z"/>
		</g>
	</g>
	<g>
		<g>
			<path class="st3" d="M848.5,139.6h5.1v6.9h6.5v-6.9h5.1v18.4h-5.1v-7h-6.5v7h-5.1V139.6z"/>
			<path class="st3" d="M867.9,148.8c0-5.3,4.2-9.5,9.9-9.5c5.7,0,9.9,4.2,9.9,9.5c0,5.3-4.2,9.5-9.9,9.5S867.9,154.1,867.9,148.8z
				 M882.4,148.8c0-2.6-1.9-5-4.7-5c-2.8,0-4.6,2.3-4.6,5c0,2.6,1.9,5,4.7,5C880.6,153.7,882.4,151.5,882.4,148.8z"/>
			<path class="st3" d="M888,139.6h5.4l3.2,10.6l3.5-10.7h4.4l3.5,10.7l3.2-10.6h5.3l-6.1,18.5h-4.4l-3.7-10.6l-3.7,10.6h-4.4
				L888,139.6z"/>
			<path class="st3" d="M924.6,139.6h5.4l3.2,10.6l3.5-10.7h4.4l3.5,10.7l3.2-10.6h5.3l-6.1,18.5h-4.4l-3.7-10.6l-3.7,10.6h-4.4
				L924.6,139.6z"/>
			<path class="st3" d="M955.1,139.6h14.8v4.3h-9.7v2.8h8.8v4h-8.8v2.9h9.9v4.3h-14.9V139.6z"/>
			<path class="st3" d="M978.6,139.6h5.4l3.2,10.6l3.5-10.7h4.4l3.5,10.7l3.2-10.6h5.3l-6.1,18.5h-4.4l-3.7-10.6l-3.7,10.6h-4.4
				L978.6,139.6z"/>
			<path class="st3" d="M1007.5,148.8c0-5.3,4.3-9.5,9.9-9.5c5.7,0,9.9,4.2,9.9,9.5c0,5.3-4.2,9.5-9.9,9.5
				C1011.7,158.3,1007.5,154.1,1007.5,148.8z M1022.1,148.8c0-2.6-1.9-5-4.7-5c-2.8,0-4.6,2.3-4.6,5c0,2.6,1.9,5,4.7,5
				C1020.2,153.7,1022.1,151.5,1022.1,148.8z"/>
			<path class="st3" d="M1029.9,139.6h8.7c2.8,0,4.7,0.7,6,2c1.1,1.1,1.6,2.5,1.6,4.4c0,2.8-1.5,4.7-3.8,5.6l4.4,6.4h-5.9l-3.7-5.6
				h-2.2v5.6h-5.1V139.6z M1038.4,148.4c1.7,0,2.7-0.8,2.7-2.2c0-1.4-1-2.2-2.8-2.2h-3.3v4.4H1038.4z"/>
			<path class="st3" d="M1048.8,139.6h5.1v7.4l6.3-7.4h6l-7,7.9l7.2,10.5h-6.1l-4.6-6.8l-1.9,2.1v4.7h-5.1V139.6z"/>
		</g>
	</g>
</g>
</svg>
