<?xml version="1.0" encoding="utf-8"?>
<!-- Generator: Adobe Illustrator 18.1.1, SVG Export Plug-In . SVG Version: 6.00 Build 0)  -->
<svg version="1.1" id="Layer_1" xmlns="http://www.w3.org/2000/svg" xmlns:xlink="http://www.w3.org/1999/xlink" x="0px" y="0px"
	 viewBox="262.7 374.3 99.3 43.3" style="enable-background:new 262.7 374.3 99.3 43.3;" xml:space="preserve">
<style type="text/css">
	.st0{opacity:0.1;}
	.st1{fill:#4D4F4E;}
	.st2{fill:#00F9F8;}
</style>
<g id="mobile-team-title">
	<g class="st0">
		<g>
			<path class="st1" d="M265.7,394.7v-18.1h8.5c2.6,0,4.6,0.6,5.9,1.9c1.1,1.1,1.6,2.5,1.6,4.3c0,1.3-0.3,2.5-1,3.4
				c-0.6,0.9-1.6,1.6-2.7,2.1l4.3,6.3h-5.8l-3.6-5.5h-2.2v5.5H265.7z M270.8,385.3h3.3c0.9,0,1.5-0.2,2-0.6c0.5-0.4,0.7-0.9,0.7-1.6
				c0-0.7-0.2-1.2-0.7-1.6s-1.1-0.5-2-0.5h-3.3L270.8,385.3L270.8,385.3z"/>
			<path class="st1" d="M283.7,385.6c0-1.3,0.3-2.5,0.8-3.7c0.5-1.1,1.2-2.2,2-3c0.9-0.8,1.9-1.5,3.1-2s2.5-0.7,3.9-0.7
				c1.4,0,2.6,0.3,3.9,0.7s2.2,1.1,3.1,2c0.9,0.8,1.5,1.8,2,3c0.5,1.1,0.7,2.4,0.7,3.7c0,1.3-0.3,2.5-0.7,3.7c-0.5,1.1-1.2,2.2-2,3
				c-0.9,0.8-1.9,1.5-3.1,2s-2.5,0.7-3.9,0.7c-1.8,0-3.5-0.4-5-1.2c-1.5-0.8-2.6-2-3.5-3.4C284.1,388.9,283.7,387.3,283.7,385.6z
				 M288.9,385.6c0,1.3,0.4,2.5,1.3,3.4c0.9,1,2,1.4,3.3,1.4s2.5-0.5,3.3-1.4c0.9-1,1.3-2.1,1.3-3.5c0-1.3-0.4-2.5-1.3-3.4
				c-0.9-1-2-1.4-3.3-1.4c-1.3,0-2.4,0.5-3.3,1.4C289.3,383.1,288.9,384.2,288.9,385.6z"/>
			<path class="st1" d="M305.2,385.6c0-1.3,0.3-2.6,0.7-3.7s1.1-2.2,2-3c0.8-0.8,1.8-1.5,3-2s2.5-0.7,3.8-0.7c3.2,0,5.8,1.3,7.6,3.8
				l-3.7,2.9c-1.1-1.4-2.5-2.1-4-2.1c-1.2,0-2.3,0.5-3.1,1.4c-0.8,1-1.2,2.1-1.2,3.5c0,1.4,0.4,2.6,1.2,3.5c0.8,0.9,1.8,1.4,3.1,1.4
				c0.9,0,1.6-0.2,2.3-0.5c0.6-0.4,1.2-0.9,1.8-1.7l3.8,2.7c-0.6,0.8-1.3,1.5-1.9,2.1c-0.7,0.6-1.6,1-2.6,1.4
				c-1.1,0.4-2.2,0.5-3.5,0.5c-1.7,0-3.3-0.4-4.7-1.2s-2.5-1.9-3.4-3.4C305.6,389,305.2,387.4,305.2,385.6z"/>
			<path class="st1" d="M324.7,394.7v-18.1h5v7.3l6.2-7.3h5.9l-6.9,7.8l7.1,10.3h-6l-4.6-6.7l-1.8,2v4.7H324.7z"/>
			<path class="st1" d="M342.5,401.7c0-2.4,1.3-4.1,3.8-5.3c-0.8-1.2-1.2-2.4-1.2-3.6c0-1.5,0.5-2.7,1.6-3.7c1.1-1,2.5-1.5,4.3-1.5
				c1.7,0,3,0.5,4,1.4s1.5,2.1,1.5,3.6c0,2.1-1.2,3.7-3.7,4.9l2.1,2c0.6-0.8,1.2-1.8,1.8-3l3.4,1.7c-0.8,1.5-1.7,2.9-2.5,4l2.5,2.5
				l-3.5,2.5l-1.9-1.9c-1.7,1.2-3.5,1.9-5.6,1.9c-2,0-3.6-0.5-4.8-1.4C343.1,404.6,342.5,403.4,342.5,401.7z M347.7,401.5
				c0,0.5,0.2,1,0.6,1.3c0.4,0.4,0.9,0.5,1.6,0.5s1.4-0.3,2.2-0.8l-3.1-3.1C348.1,399.9,347.7,400.6,347.7,401.5z M349.5,393
				c0,0.6,0.3,1.3,1,2.1c0.7-0.3,1.2-0.6,1.5-1c0.3-0.4,0.5-0.8,0.5-1.3c0-0.4-0.1-0.8-0.4-1.1c-0.3-0.3-0.6-0.4-1.1-0.4
				s-0.8,0.2-1.1,0.5C349.6,392,349.5,392.5,349.5,393z"/>
			<path class="st1" d="M265.7,415.8V397h8.9c2.7,0,4.8,0.7,6.1,2c1.1,1.1,1.7,2.6,1.7,4.5c0,1.4-0.4,2.5-1,3.5
				c-0.7,1-1.6,1.7-2.8,2.2l4.5,6.6h-6l-3.8-5.7h-2.3v5.7H265.7z M271,406h3.4c0.9,0,1.6-0.2,2.1-0.6c0.5-0.4,0.7-1,0.7-1.7
				c0-0.7-0.3-1.3-0.7-1.6c-0.5-0.4-1.2-0.6-2.1-0.6H271L271,406L271,406z"/>
			<path class="st1" d="M284.4,406.4c0-1.3,0.3-2.6,0.8-3.8s1.2-2.2,2.1-3.1c0.9-0.9,2-1.6,3.2-2.1c1.3-0.5,2.6-0.8,4-0.8
				c1.4,0,2.8,0.3,4,0.8c1.2,0.5,2.3,1.2,3.2,2.1c0.9,0.9,1.6,1.9,2.1,3.1c0.5,1.2,0.8,2.5,0.8,3.8c0,1.3-0.3,2.6-0.8,3.8
				s-1.2,2.2-2.1,3.1c-0.9,0.9-2,1.6-3.2,2.1c-1.2,0.5-2.6,0.8-4,0.8c-1.9,0-3.6-0.4-5.2-1.3c-1.6-0.9-2.7-2-3.6-3.5
				C284.9,409.8,284.4,408.2,284.4,406.4z M289.8,406.4c0,1.4,0.4,2.6,1.4,3.6c0.9,1,2.1,1.5,3.4,1.5c1.4,0,2.6-0.5,3.4-1.5
				s1.3-2.2,1.3-3.6s-0.4-2.6-1.4-3.6c-0.9-1-2.1-1.5-3.5-1.5s-2.5,0.5-3.4,1.5S289.8,405,289.8,406.4z"/>
			<path class="st1" d="M307.4,415.8V397h5.2v14.2h9.1v4.6L307.4,415.8L307.4,415.8z"/>
			<path class="st1" d="M323.9,415.8V397h5.2v14.2h9.1v4.6L323.9,415.8L323.9,415.8z"/>
		</g>
	</g>
	<g>
		<g>
			<path class="st1" d="M295.2,387.9v-2.8h0.2v1.3h1.8v-1.3h0.2v2.8h-0.2v-1.3h-1.8v1.3H295.2z"/>
			<path class="st1" d="M298,387.3c0-0.2,0.1-0.4,0.3-0.5c0.2-0.1,0.4-0.2,0.6-0.2c0.2,0,0.4,0,0.7,0.1v-0.1c0-0.2-0.1-0.4-0.2-0.4
				c-0.1-0.1-0.3-0.2-0.5-0.2c-0.2,0-0.4,0.1-0.6,0.2l-0.1-0.2c0.3-0.1,0.5-0.2,0.7-0.2c0.3,0,0.5,0.1,0.6,0.2
				c0.1,0.1,0.2,0.3,0.2,0.6v1.2h-0.2v-0.4c-0.1,0.1-0.2,0.2-0.3,0.3c-0.1,0.1-0.3,0.1-0.4,0.1c-0.1,0-0.3,0-0.4-0.1
				c-0.1,0-0.2-0.1-0.3-0.2C298,387.6,298,387.5,298,387.3z M298.2,387.3c0,0.2,0.1,0.3,0.2,0.4c0.1,0.1,0.3,0.1,0.4,0.1
				c0.2,0,0.4-0.1,0.5-0.2c0.2-0.1,0.2-0.3,0.2-0.4V387c-0.2-0.1-0.4-0.1-0.7-0.1s-0.4,0-0.5,0.1
				C298.2,387.1,298.2,387.2,298.2,387.3z"/>
			<path class="st1" d="M300.4,387.9v-2h0.2v1.8h1.1v-1.8h0.2v1.8h1.1v-1.8h0.2v2H300.4z"/>
			<path class="st1" d="M303.8,387.3c0-0.2,0.1-0.4,0.3-0.5c0.2-0.1,0.4-0.2,0.6-0.2c0.2,0,0.4,0,0.7,0.1v-0.1
				c0-0.2-0.1-0.4-0.2-0.4c-0.1-0.1-0.3-0.2-0.5-0.2c-0.2,0-0.4,0.1-0.6,0.2l-0.1-0.2c0.3-0.1,0.5-0.2,0.7-0.2
				c0.3,0,0.5,0.1,0.6,0.2c0.1,0.1,0.2,0.3,0.2,0.6v1.2h-0.2v-0.4c-0.1,0.1-0.2,0.2-0.3,0.3c-0.1,0.1-0.3,0.1-0.4,0.1
				c-0.1,0-0.3,0-0.4-0.1c-0.1,0-0.2-0.1-0.3-0.2C303.8,387.6,303.8,387.5,303.8,387.3z M304,387.3c0,0.2,0.1,0.3,0.2,0.4
				c0.1,0.1,0.3,0.1,0.4,0.1c0.2,0,0.4-0.1,0.5-0.2c0.2-0.1,0.2-0.3,0.2-0.4V387c-0.2-0.1-0.4-0.1-0.7-0.1c-0.2,0-0.4,0-0.5,0.1
				C304,387.1,304,387.2,304,387.3z"/>
			<path class="st1" d="M307.4,387.9v-2h0.2v1.3l1.2-1.3h0.3l-0.9,0.9l0.9,1.1h-0.3l-0.8-1l-0.5,0.5v0.5L307.4,387.9L307.4,387.9z"
				/>
			<path class="st1" d="M309.4,386.9c0-0.1,0-0.3,0.1-0.4c0.1-0.1,0.1-0.3,0.2-0.4c0.1-0.1,0.2-0.2,0.3-0.2c0.1-0.1,0.3-0.1,0.4-0.1
				c0.2,0,0.4,0,0.5,0.2c0.2,0.1,0.3,0.2,0.4,0.4c0.1,0.2,0.1,0.4,0.1,0.5c0,0.2,0,0.4-0.1,0.5c-0.1,0.2-0.2,0.3-0.4,0.4
				c-0.2,0.1-0.4,0.2-0.5,0.2c-0.2,0-0.3,0-0.4-0.1s-0.2-0.1-0.3-0.2c-0.1-0.1-0.2-0.2-0.2-0.4C309.4,387.2,309.4,387.1,309.4,386.9
				z M309.6,386.9c0,0.3,0.1,0.4,0.3,0.6c0.2,0.2,0.4,0.3,0.6,0.3c0.2,0,0.3,0,0.4-0.1c0.1-0.1,0.2-0.2,0.3-0.3
				c0.1-0.1,0.1-0.3,0.1-0.4c0-0.3-0.1-0.4-0.3-0.6c-0.2-0.2-0.4-0.3-0.6-0.3c-0.2,0-0.3,0-0.4,0.1c-0.1,0.1-0.2,0.2-0.3,0.3
				C309.7,386.6,309.6,386.8,309.6,386.9z"/>
			<path class="st1" d="M312.1,387.9v-2h0.2l0.8,1.1l0.8-1.1h0.2v2h-0.2v-1.7l-0.8,1.1l-0.8-1.1v1.7H312.1z"/>
			<path class="st1" d="M314.6,387.3c0-0.2,0.1-0.4,0.3-0.5s0.4-0.2,0.6-0.2c0.2,0,0.4,0,0.7,0.1v-0.1c0-0.2-0.1-0.4-0.2-0.4
				c-0.1-0.1-0.3-0.2-0.5-0.2c-0.2,0-0.4,0.1-0.6,0.2l-0.1-0.2c0.3-0.1,0.5-0.2,0.7-0.2c0.3,0,0.5,0.1,0.6,0.2
				c0.1,0.1,0.2,0.3,0.2,0.6v1.2h-0.2v-0.4c-0.1,0.1-0.2,0.2-0.3,0.3c-0.1,0.1-0.3,0.1-0.4,0.1c-0.1,0-0.3,0-0.4-0.1
				c-0.1,0-0.2-0.1-0.3-0.2C314.7,387.6,314.6,387.5,314.6,387.3z M314.9,387.3c0,0.2,0.1,0.3,0.2,0.4c0.1,0.1,0.3,0.1,0.4,0.1
				c0.2,0,0.4-0.1,0.5-0.2c0.2-0.1,0.2-0.3,0.2-0.4V387c-0.2-0.1-0.4-0.1-0.7-0.1s-0.4,0-0.5,0.1C315,387.1,314.9,387.2,314.9,387.3
				z"/>
			<path class="st1" d="M317.1,387.9v-2h0.2v0.9h1.3v-0.9h0.2v2h-0.2v-1h-1.3v1H317.1z"/>
			<path class="st1" d="M319.2,387.7h0.3c0.2-0.3,0.3-0.8,0.3-1.4v-0.4h1.3v1.8h0.3l0,0.7h-0.2v-0.6h-1.8l0,0.6h-0.2L319.2,387.7
				L319.2,387.7z M319.7,387.7h1.2v-1.7h-1v0.4c0,0.3,0,0.5-0.1,0.7C319.9,387.4,319.8,387.6,319.7,387.7z"/>
			<path class="st1" d="M321.8,387.3c0-0.2,0.1-0.4,0.3-0.5c0.2-0.1,0.4-0.2,0.6-0.2c0.2,0,0.4,0,0.7,0.1v-0.1
				c0-0.2-0.1-0.4-0.2-0.4c-0.1-0.1-0.3-0.2-0.5-0.2c-0.2,0-0.4,0.1-0.6,0.2l-0.1-0.2c0.3-0.1,0.5-0.2,0.7-0.2
				c0.3,0,0.5,0.1,0.6,0.2c0.1,0.1,0.2,0.3,0.2,0.6v1.2h-0.2v-0.4c-0.1,0.1-0.2,0.2-0.3,0.3c-0.1,0.1-0.3,0.1-0.4,0.1
				c-0.1,0-0.3,0-0.4-0.1c-0.1,0-0.2-0.1-0.3-0.2C321.8,387.6,321.8,387.5,321.8,387.3z M322,387.3c0,0.2,0.1,0.3,0.2,0.4
				c0.1,0.1,0.3,0.1,0.4,0.1c0.2,0,0.4-0.1,0.5-0.2c0.2-0.1,0.2-0.3,0.2-0.4V387c-0.2-0.1-0.4-0.1-0.7-0.1s-0.4,0-0.5,0.1
				C322.1,387.1,322,387.2,322,387.3z"/>
			<path class="st1" d="M324.2,386.2v-0.4h0.3v0.4H324.2z M324.2,387.9v-0.4h0.3v0.4H324.2z"/>
		</g>
	</g>
	<g>
		<g>
			<path class="st1" d="M269.3,396.9v-5h1.4v1.9h1.8V392h1.4v5h-1.4V395h-1.8v1.9H269.3z"/>
			<path class="st1" d="M274.5,394.4c0-0.4,0.1-0.7,0.2-1s0.3-0.6,0.6-0.8c0.2-0.2,0.5-0.4,0.9-0.5c0.3-0.1,0.7-0.2,1.1-0.2
				c0.4,0,0.7,0.1,1.1,0.2c0.3,0.1,0.6,0.3,0.9,0.5c0.2,0.2,0.4,0.5,0.5,0.8c0.1,0.3,0.2,0.7,0.2,1c0,0.4-0.1,0.7-0.2,1
				s-0.3,0.6-0.6,0.8c-0.2,0.2-0.5,0.4-0.9,0.5c-0.3,0.1-0.7,0.2-1.1,0.2c-0.5,0-1-0.1-1.4-0.4c-0.4-0.2-0.7-0.5-1-0.9
				C274.6,395.4,274.5,394.9,274.5,394.4z M275.9,394.4c0,0.4,0.1,0.7,0.4,1c0.3,0.3,0.5,0.4,0.9,0.4s0.7-0.1,0.9-0.4
				c0.2-0.3,0.4-0.6,0.4-1c0-0.4-0.1-0.7-0.4-1c-0.3-0.3-0.5-0.4-0.9-0.4s-0.7,0.1-0.9,0.4C276,393.7,275.9,394.1,275.9,394.4z"/>
			<path class="st1" d="M280.2,392h1.5l0.9,2.9l1-2.9h1.2l1,2.9l0.9-2.9h1.4l-1.7,5h-1.2l-1-2.9l-1,2.9h-1.2L280.2,392z"/>
			<path class="st1" d="M290.1,392h1.5l0.9,2.9l1-2.9h1.2l1,2.9l0.9-2.9h1.4l-1.7,5H295l-1-2.9l-1,2.9h-1.2L290.1,392z"/>
			<path class="st1" d="M298.4,396.9v-5h4v1.2h-2.6v0.8h2.4v1.1h-2.4v0.8h2.7v1.2L298.4,396.9L298.4,396.9z"/>
			<path class="st1" d="M305.1,396.9v-5h2.4c0.7,0,1.3,0.2,1.6,0.5c0.3,0.3,0.4,0.7,0.4,1.2c0,0.4-0.1,0.7-0.3,0.9
				c-0.2,0.3-0.4,0.4-0.7,0.6l1.2,1.8h-1.6l-1-1.5h-0.6v1.5C306.5,396.9,305.1,396.9,305.1,396.9z M306.5,394.3h0.9
				c0.2,0,0.4-0.1,0.5-0.2c0.1-0.1,0.2-0.3,0.2-0.4s-0.1-0.3-0.2-0.4c-0.1-0.1-0.3-0.2-0.5-0.2h-0.9V394.3z"/>
			<path class="st1" d="M310,394.4c0-0.4,0.1-0.7,0.2-1c0.1-0.3,0.3-0.6,0.6-0.8c0.2-0.2,0.5-0.4,0.9-0.5c0.3-0.1,0.7-0.2,1.1-0.2
				c0.4,0,0.7,0.1,1.1,0.2c0.3,0.1,0.6,0.3,0.9,0.5c0.2,0.2,0.4,0.5,0.5,0.8s0.2,0.7,0.2,1c0,0.4-0.1,0.7-0.2,1
				c-0.1,0.3-0.3,0.6-0.6,0.8c-0.2,0.2-0.5,0.4-0.9,0.5c-0.3,0.1-0.7,0.2-1.1,0.2c-0.5,0-1-0.1-1.4-0.4c-0.4-0.2-0.7-0.5-1-0.9
				C310.1,395.4,310,394.9,310,394.4z M311.4,394.4c0,0.4,0.1,0.7,0.4,1c0.3,0.3,0.5,0.4,0.9,0.4s0.7-0.1,0.9-0.4
				c0.2-0.3,0.4-0.6,0.4-1c0-0.4-0.1-0.7-0.4-1c-0.3-0.3-0.5-0.4-0.9-0.4s-0.7,0.1-0.9,0.4C311.5,393.7,311.4,394.1,311.4,394.4z"/>
			<path class="st1" d="M315.9,394.4c0-0.4,0.1-0.7,0.2-1c0.1-0.3,0.3-0.6,0.5-0.8c0.2-0.2,0.5-0.4,0.8-0.5c0.3-0.1,0.7-0.2,1.1-0.2
				c0.9,0,1.6,0.4,2.1,1.1l-1,0.8c-0.3-0.4-0.7-0.6-1.1-0.6c-0.4,0-0.6,0.1-0.9,0.4c-0.2,0.3-0.3,0.6-0.3,1s0.1,0.7,0.3,1
				c0.2,0.3,0.5,0.4,0.9,0.4c0.3,0,0.4-0.1,0.6-0.2c0.2-0.1,0.4-0.3,0.5-0.4l1.1,0.7c-0.2,0.2-0.4,0.4-0.5,0.6
				c-0.2,0.2-0.4,0.3-0.7,0.4c-0.3,0.1-0.6,0.2-1,0.2c-0.5,0-0.9-0.1-1.3-0.3c-0.4-0.2-0.7-0.5-0.9-0.9
				C316,395.4,315.9,394.9,315.9,394.4z"/>
			<path class="st1" d="M321.3,396.9v-5h1.4v2l1.7-2h1.6l-1.9,2.1l1.9,2.8h-1.7l-1.2-1.8l-0.5,0.6v1.3
				C322.6,396.9,321.3,396.9,321.3,396.9z"/>
			<path class="st1" d="M326.2,395.6c0-0.6,0.4-1.1,1-1.4c-0.2-0.3-0.3-0.6-0.3-1c0-0.4,0.1-0.7,0.4-1c0.3-0.3,0.7-0.4,1.1-0.4
				c0.4,0,0.8,0.1,1.1,0.4c0.3,0.3,0.4,0.6,0.4,1c0,0.6-0.3,1-1,1.3l0.5,0.5c0.2-0.2,0.3-0.5,0.5-0.8l0.9,0.4
				c-0.2,0.4-0.4,0.8-0.7,1.1l0.7,0.6L330,397l-0.5-0.5c-0.4,0.3-0.9,0.5-1.5,0.5c-0.5,0-1-0.1-1.3-0.4
				C326.3,396.4,326.2,396,326.2,395.6z M327.5,395.5c0,0.2,0.1,0.3,0.2,0.4c0.1,0.1,0.3,0.1,0.4,0.1c0.2,0,0.4-0.1,0.6-0.2
				l-0.8-0.8C327.6,395.1,327.5,395.3,327.5,395.5z M328,393.3c0,0.2,0.1,0.4,0.3,0.6c0.2-0.1,0.3-0.2,0.4-0.3
				c0.1-0.1,0.1-0.2,0.1-0.4s0-0.2-0.1-0.3c-0.1-0.1-0.2-0.1-0.3-0.1c-0.1,0-0.2,0-0.3,0.1C328.1,393,328,393.1,328,393.3z"/>
			<path class="st1" d="M331.4,396.9v-5h2.4c0.7,0,1.3,0.2,1.6,0.5c0.3,0.3,0.4,0.7,0.4,1.2c0,0.4-0.1,0.7-0.3,0.9
				c-0.2,0.3-0.4,0.4-0.7,0.6l1.2,1.8h-1.6l-1-1.5h-0.6v1.5C332.8,396.9,331.4,396.9,331.4,396.9z M332.8,394.3h0.9
				c0.2,0,0.4-0.1,0.5-0.2c0.1-0.1,0.2-0.3,0.2-0.4s-0.1-0.3-0.2-0.4c-0.1-0.1-0.3-0.2-0.5-0.2h-0.9V394.3z"/>
			<path class="st1" d="M336.3,394.4c0-0.4,0.1-0.7,0.2-1c0.1-0.3,0.3-0.6,0.6-0.8c0.2-0.2,0.5-0.4,0.9-0.5c0.3-0.1,0.7-0.2,1.1-0.2
				c0.4,0,0.7,0.1,1.1,0.2c0.3,0.1,0.6,0.3,0.9,0.5c0.2,0.2,0.4,0.5,0.5,0.8c0.1,0.3,0.2,0.7,0.2,1c0,0.4-0.1,0.7-0.2,1
				s-0.3,0.6-0.6,0.8c-0.2,0.2-0.5,0.4-0.9,0.5c-0.3,0.1-0.7,0.2-1.1,0.2c-0.5,0-1-0.1-1.4-0.4c-0.4-0.2-0.7-0.5-1-0.9
				C336.4,395.4,336.3,394.9,336.3,394.4z M337.7,394.4c0,0.4,0.1,0.7,0.4,1c0.3,0.3,0.5,0.4,0.9,0.4s0.7-0.1,0.9-0.4
				c0.2-0.3,0.4-0.6,0.4-1c0-0.4-0.1-0.7-0.4-1c-0.3-0.3-0.5-0.4-0.9-0.4c-0.4,0-0.7,0.1-0.9,0.4
				C337.9,393.7,337.7,394.1,337.7,394.4z"/>
			<path class="st1" d="M342.4,396.9v-5h1.4v3.8h2.4v1.2H342.4z"/>
			<path class="st1" d="M346.8,396.9v-5h1.4v3.8h2.4v1.2H346.8z"/>
		</g>
	</g>
</g>
<g id="mobile-about-team-title">
	<g class="st0">
		<g>
			<path class="st1" d="M268.5,394.8v-16.9h4.7v6.4h6v-6.4h4.7v16.9h-4.7v-6.4h-6v6.4L268.5,394.8L268.5,394.8z"/>
			<path class="st1" d="M286.3,386.4c0-1.2,0.2-2.3,0.7-3.4c0.5-1.1,1.1-2,1.9-2.8s1.8-1.4,2.9-1.9c1.1-0.5,2.3-0.7,3.6-0.7
				c1.3,0,2.5,0.2,3.6,0.7c1.1,0.4,2.1,1.1,2.9,1.9s1.4,1.7,1.9,2.8c0.4,1.1,0.7,2.2,0.7,3.4c0,1.2-0.2,2.3-0.7,3.4
				c-0.5,1.1-1.1,2-1.9,2.8s-1.8,1.4-2.9,1.9c-1.1,0.5-2.3,0.7-3.6,0.7c-1.7,0-3.3-0.4-4.7-1.2c-1.4-0.8-2.5-1.8-3.3-3.2
				C286.7,389.4,286.3,388,286.3,386.4z M291.1,386.4c0,1.2,0.4,2.3,1.2,3.2c0.8,0.9,1.8,1.3,3.1,1.3c1.3,0,2.3-0.4,3.1-1.3
				c0.8-0.9,1.2-2,1.2-3.3c0-1.2-0.4-2.3-1.2-3.2c-0.8-0.9-1.8-1.3-3.1-1.3c-1.2,0-2.3,0.4-3.1,1.3S291.1,385.1,291.1,386.4z"/>
			<path class="st1" d="M305.8,377.9h4.9l2.9,9.8l3.3-9.8h4l3.3,9.8l3.3-9.8h4.5l-5.6,17h-4.1l-3.4-9.7l-3.4,9.7h-4.1L305.8,377.9z"
				/>
			<g>
				<g>
					<path class="st2" d="M316.5,377.9h4.9l2.6,9.8l3.3-9.8h4.7l2.9,9.8l3-9.8h4.8l-5.6,17h-4.1l-3.4-9.7l-3.1,9.7h-4.4L316.5,377.9
						z"/>
				</g>
			</g>
			<path class="st1" d="M343.9,394.8v-16.9h13.6v4h-9v2.5h8.1v3.7h-8.1v2.7h9.1v4H343.9z"/>
			<path class="st1" d="M268.2,397h4.9l2.9,9.8l3.3-9.8h4l3.3,9.8l3-9.8h4.8l-5.6,17h-4.1l-3.4-9.7l-3.4,9.7h-4.1L268.2,397z"/>
			<path class="st1" d="M295.8,405.5c0-1.2,0.2-2.3,0.7-3.4c0.5-1.1,1.1-2,1.9-2.8s1.8-1.4,2.9-1.9c1.1-0.5,2.3-0.7,3.6-0.7
				c1.3,0,2.5,0.2,3.6,0.7c1.1,0.4,2.1,1.1,2.9,1.9s1.4,1.7,1.9,2.8c0.4,1.1,0.7,2.2,0.7,3.4c0,1.2-0.2,2.3-0.7,3.4
				c-0.5,1.1-1.1,2-1.9,2.8s-1.8,1.4-2.9,1.9c-1.1,0.5-2.3,0.7-3.6,0.7c-1.7,0-3.3-0.4-4.7-1.2s-2.5-1.8-3.3-3.2
				C296.1,408.6,295.8,407.1,295.8,405.5z M300.5,405.5c0,1.2,0.4,2.3,1.2,3.2c0.8,0.9,1.8,1.3,3.1,1.3c1.3,0,2.3-0.4,3.1-1.3
				c0.8-0.9,1.2-2,1.2-3.3c0-1.2-0.4-2.3-1.2-3.2c-0.8-0.9-1.8-1.3-3.1-1.3c-1.2,0-2.3,0.4-3.1,1.3
				C300.9,403.1,300.5,404.2,300.5,405.5z"/>
			<path class="st1" d="M316.4,413.9V397h8c2.5,0,4.3,0.6,5.5,1.8c1,1,1.5,2.4,1.5,4c0,1.2-0.3,2.3-0.9,3.2c-0.6,0.9-1.5,1.5-2.6,2
				l4,5.9h-5.4l-3.4-5.1h-2v5.1H316.4z M321.1,405.2h3.1c0.8,0,1.4-0.2,1.8-0.5c0.4-0.4,0.7-0.9,0.7-1.5c0-0.6-0.2-1.1-0.7-1.5
				c-0.4-0.4-1.1-0.5-1.9-0.5h-3.1V405.2z"/>
			<path class="st1" d="M333.7,413.9V397h4.7v6.9l5.8-6.9h5.5l-6.4,7.3l6.6,9.6h-5.6l-4.2-6.3l-1.7,1.9v4.4L333.7,413.9L333.7,413.9
				z"/>
		</g>
	</g>
	<g>
		<g>
			<path class="st1" d="M290.2,387.6c-0.5-0.1-0.9-0.4-0.9-1c0-0.5,0.4-1,1.1-1h1.4v3.3h-0.3v-1.3h-1.1l-1,1.3h-0.3L290.2,387.6z
				 M291.5,387.4v-1.5h-1.1c-0.6,0-0.9,0.3-0.9,0.7c0,0.5,0.4,0.8,1,0.8C290.5,387.4,291.5,387.4,291.5,387.4z"/>
			<path class="st1" d="M292.7,386.5h0.2v1.5l1.5-1.5h0.3l-1,1.1l1.1,1.3h-0.3l-0.9-1.1l-0.6,0.6v0.6h-0.2L292.7,386.5L292.7,386.5z
				"/>
			<path class="st1" d="M296.7,386.5h0.2l1,1.4l1-1.4h0.2v2.4h-0.2v-2l-1,1.3l-1-1.3v2h-0.2L296.7,386.5L296.7,386.5z"/>
			<path class="st1" d="M299.9,386.5h0.2v2.1l1.6-2.1h0.2v2.4h-0.2v-2.1l-1.6,2.1h-0.2V386.5z"/>
			<path class="st1" d="M304.2,386.5h2v2.4H306v-2.2h-1.5v2.2h-0.2V386.5z"/>
			<path class="st1" d="M307,386.5h0.2v0.5c0.2-0.3,0.5-0.6,1-0.6c0.6,0,1.1,0.4,1.1,1.2c0,0.8-0.6,1.2-1.1,1.2
				c-0.5,0-0.8-0.3-1-0.6v1.2H307V386.5z M309.1,387.7c0-0.6-0.4-1-0.9-1s-1,0.4-1,1c0,0.6,0.5,1,1,1
				C308.7,388.7,309.1,388.4,309.1,387.7z"/>
			<path class="st1" d="M309.9,388.2c0-0.5,0.4-0.8,1.1-0.8c0.3,0,0.5,0,0.8,0.1v-0.1c0-0.5-0.3-0.7-0.8-0.7c-0.3,0-0.5,0.1-0.7,0.2
				l-0.1-0.2c0.3-0.1,0.5-0.2,0.8-0.2s0.6,0.1,0.7,0.3c0.2,0.2,0.3,0.4,0.3,0.7v1.5h-0.2v-0.4c-0.2,0.2-0.4,0.4-0.9,0.4
				C310.4,389,309.9,388.7,309.9,388.2z M311.7,388v-0.3c-0.2-0.1-0.5-0.1-0.8-0.1c-0.5,0-0.8,0.2-0.8,0.6c0,0.4,0.3,0.5,0.7,0.5
				C311.3,388.8,311.7,388.5,311.7,388z"/>
			<path class="st1" d="M314.9,388.9h-2.1v-2.4h0.2v2.2h1.5v-2.2h0.2v2.2h0.4l0,0.9h-0.2L314.9,388.9L314.9,388.9z"/>
			<path class="st1" d="M316.5,387.8h-0.6v1.1h-0.2v-2.4h0.2v1.1h0.6c0-0.6,0.5-1.1,1.1-1.1c0.7,0,1.1,0.6,1.1,1.2s-0.4,1.2-1.1,1.2
				C317,389,316.5,388.5,316.5,387.8z M318.5,387.7c0-0.6-0.4-1-0.9-1c-0.6,0-0.9,0.4-0.9,1c0,0.6,0.4,1,0.9,1
				C318.2,388.8,318.5,388.3,318.5,387.7z"/>
			<path class="st1" d="M319.3,387.8c0-0.7,0.5-1.2,1.2-1.2c0.4,0,0.7,0.2,0.9,0.4l-0.2,0.2c-0.2-0.2-0.4-0.4-0.8-0.4
				c-0.5,0-0.9,0.4-1,0.9h1.2v0.2h-1.2c0,0.5,0.4,1,1,1c0.3,0,0.6-0.2,0.8-0.4l0.2,0.2c-0.2,0.3-0.5,0.5-1,0.5
				C319.8,389,319.3,388.4,319.3,387.8z"/>
			<path class="st1" d="M322.1,386.5h0.2l1,1.4l1-1.4h0.2v2.4h-0.2v-2l-1,1.3l-1-1.3v2h-0.2L322.1,386.5L322.1,386.5z"/>
			<path class="st1" d="M325.1,387.7c0-0.7,0.5-1.2,1.2-1.2c0.7,0,1.2,0.6,1.2,1.2s-0.5,1.2-1.2,1.2
				C325.6,389,325.1,388.4,325.1,387.7z M327.3,387.7c0-0.6-0.4-1-1-1s-1,0.4-1,1c0,0.6,0.4,1,1,1
				C326.9,388.8,327.3,388.3,327.3,387.7z"/>
			<path class="st1" d="M328.2,386.5h0.3v0.4h-0.3V386.5z M328.2,388.5h0.3v0.4h-0.3V388.5z"/>
		</g>
	</g>
	<g>
		<g>
			<path class="st1" d="M274.5,393.3h1.6v2.2h2.1v-2.2h1.6v5.9h-1.6v-2.2h-2.1v2.2h-1.6V393.3z"/>
			<path class="st1" d="M280.6,396.2c0-1.7,1.3-3,3.2-3c1.8,0,3.2,1.3,3.2,3c0,1.7-1.3,3-3.2,3C282,399.3,280.6,397.9,280.6,396.2z
				 M285.3,396.2c0-0.8-0.6-1.6-1.5-1.6c-0.9,0-1.5,0.7-1.5,1.6c0,0.8,0.6,1.6,1.5,1.6C284.7,397.8,285.3,397.1,285.3,396.2z"/>
			<path class="st1" d="M287,393.3h1.7l1,3.4l1.1-3.4h1.4l1.1,3.4l1-3.4h1.7l-1.9,5.9h-1.4l-1.2-3.4l-1.2,3.4H289L287,393.3z"/>
			<path class="st1" d="M298.7,393.3h1.7l1,3.4l1.1-3.4h1.4l1.1,3.4l1-3.4h1.7l-1.9,5.9h-1.4l-1.2-3.4l-1.2,3.4h-1.4L298.7,393.3z"
				/>
			<path class="st1" d="M308.4,393.3h4.7v1.4h-3.1v0.9h2.8v1.3h-2.8v0.9h3.2v1.4h-4.7L308.4,393.3L308.4,393.3z"/>
			<path class="st1" d="M315.9,393.3h1.7l1,3.4l1.1-3.4h1.4l1.1,3.4l1-3.4h1.7l-1.9,5.9h-1.4l-1.2-3.4l-1.2,3.4h-1.4L315.9,393.3z"
				/>
			<path class="st1" d="M325.1,396.2c0-1.7,1.4-3,3.2-3c1.8,0,3.2,1.3,3.2,3c0,1.7-1.3,3-3.2,3C326.5,399.3,325.1,397.9,325.1,396.2
				z M329.8,396.2c0-0.8-0.6-1.6-1.5-1.6c-0.9,0-1.5,0.7-1.5,1.6c0,0.8,0.6,1.6,1.5,1.6C329.2,397.8,329.8,397.1,329.8,396.2z"/>
			<path class="st1" d="M332.3,393.3h2.8c0.9,0,1.5,0.2,1.9,0.6c0.4,0.4,0.5,0.8,0.5,1.4c0,0.9-0.5,1.5-1.2,1.8l1.4,2h-1.9l-1.2-1.8
				h-0.7v1.8h-1.6V393.3z M335,396.1c0.5,0,0.9-0.3,0.9-0.7s-0.3-0.7-0.9-0.7h-1.1v1.4H335z"/>
			<path class="st1" d="M338.3,393.3h1.6v2.4l2-2.4h1.9l-2.2,2.5l2.3,3.3H342l-1.5-2.2l-0.6,0.7v1.5h-1.6L338.3,393.3L338.3,393.3z"
				/>
		</g>
	</g>
</g>
</svg>
