<?xml version="1.0" encoding="utf-8"?>
<!-- Generator: Adobe Illustrator 18.1.1, SVG Export Plug-In . SVG Version: 6.00 Build 0)  -->
<svg version="1.1" xmlns="http://www.w3.org/2000/svg" xmlns:xlink="http://www.w3.org/1999/xlink" x="0px" y="0px"
	 viewBox="0 0 1920 302.4" style="enable-background:new 0 0 1920 302.4;" xml:space="preserve">
<style type="text/css">
	.st0{fill:#00F9F8;}
	.st1{opacity:0.1;}
	.st2{opacity:0.5;fill:#4D4F4E;}
	.st3{fill:#4D4F4E;}
</style>
<g id="wedding-title">
	<g>
		<path class="st0" d="M950.5,84.7c0,0.7-0.5,1.1-1.5,1.1c-1.1,0-2.3-0.3-3.5-0.8c-2,8.6-5.2,16.8-9.7,24.6
			c-5.2,8.9-11,15.4-17.4,19.5c-2.6,1.6-5.2,2.4-7.8,2.4c-6.3,0-9.5-3.9-9.5-11.8c0-5.1,2-14.1,5.9-26.8
			c-12.3,12.4-20.1,20.2-23.5,23.3c-11.3,10.2-20,15.9-26.2,17.2c-1.5,0.4-3,0.5-4.5,0.5c-5,0-7.6-2.3-7.6-6.9
			c0-4.1,2.1-10.2,6.4-18.3c1.4-2.4,4.8-8.2,10.4-17.3c8.3-13.6,12.4-24.2,12.4-31.9c0-6.3-3.3-9.5-9.9-9.5
			c-7.4,0-16.9,4.4-28.4,13.1c-10.1,7.7-17.7,15.3-22.8,22.8c-3.4,5-5.1,9.2-5.1,12.6c0,2.9,1.6,4.3,4.9,4.3c1.1,0,2.6-0.4,4.6-1.1
			c2-0.7,3.3-1.1,4.1-1.1c1,0,1.5,0.3,1.5,0.8c0,1.3-1.6,2.4-4.7,3.5c-2.7,0.9-4.8,1.4-6.4,1.4c-5,0-7.4-2.6-7.4-7.8
			c0-6.9,3.8-14.7,11.4-23.3c6.8-7.8,15.2-14.5,25-20.3c9.8-5.8,18.2-8.7,25-8.7c10.3,0,15.4,4.4,15.4,13.2c0,4.1-1.2,8.6-3.5,13.7
			c-2.5,5.6-6,12.2-10.5,19.9c-3.9,6.5-7.8,12.9-11.6,19.3c-3.3,5.8-5,10.4-5,13.8c0,3,1.3,4.5,3.8,4.5c3,0,7.3-1.9,12.8-5.8
			c13.6-9.4,28-23.3,43.3-41.8c0.8-1.2,2.2-2.8,4.1-4.9c1.2-1,2.5-1.5,3.9-1.5c1,0,1.5,0.4,1.5,1.2c0,0.5-0.3,1.4-0.9,2.4
			c-8.7,15.3-13.1,27.9-13.1,37.7c0,6.7,1.8,10,5.3,10c3,0,7-2.7,12-8c4.1-4.4,7.3-8.5,9.3-12.2c6-11,9.1-19.3,9.1-25
			c0-1-0.3-2.4-1-4.3c-0.7-1.9-1-3.4-1-4.5c0-3.1,1-4.6,3-4.6c1.1,0,2,1.2,2.8,3.5c0.6,1.8,0.9,3.4,0.9,4.9c0,0.9,0,1.9-0.1,3.1
			c0.5,1,1.3,1.7,2.4,2C950,83.6,950.5,84.1,950.5,84.7z"/>
		<path class="st0" d="M977.4,115.1c0,0.2-0.1,0.5-0.3,0.8c-2.3,3.5-5.6,6.8-10.1,9.7c-4.8,3.2-9.1,4.7-13.1,4.7
			c-5.7,0-8.5-3.6-8.5-10.7c0-4.7,2-9.8,6.1-15.4c4.3-5.9,8.8-8.9,13.4-8.9c0.9,0,1.7,0.4,2.4,1.2c0.7,0.8,1,1.7,1,2.6
			c0,2.8-2.1,6.2-6.4,10.1c-3.8,3.5-7.3,5.9-10.4,7c-0.6,2.3-0.9,4.1-0.9,5.7c0,3.7,1.7,5.5,5,5.5c3.2,0,6.7-1.3,10.7-3.9
			c3.4-2.3,6.4-4.8,8.8-7.7c0.6-0.9,1.3-1.4,1.9-1.4C977.3,114.6,977.4,114.8,977.4,115.1z M964.2,100.8c0-1.1-0.5-1.6-1.6-1.6
			c-1.4,0-3.3,2.1-5.9,6.2c-2.3,3.5-3.7,6.3-4.2,8.2c2.3-1,4.8-2.7,7.3-5.3C962.7,105.5,964.2,103,964.2,100.8z"/>
		<path class="st0" d="M1031,55.6c0,9.6-10.8,26.9-32.3,52.2c-0.5,3.2-0.8,6.1-0.8,8.9c0,6.9,1.4,10.3,4.3,10.3
			c1.9,0,4.7-2.2,8.3-6.6c3.7-4.4,5.6-6.6,5.9-6.6s0.4,0.2,0.4,0.7c0,0.5-0.2,1.1-0.7,1.9c-5.7,9.1-11.2,13.7-16.5,13.7
			c-4.7,0-7-3.6-7-10.7c0-2.3,0.3-4.9,0.8-7.8c-7,12.5-12.9,18.8-17.7,18.8c-2.8,0-4.2-1.5-4.2-4.6c0-5.6,2.9-12.1,8.7-19.5
			c6.1-7.9,11.9-11.6,17.2-11.1c3-10.4,6.3-19.4,10-27.2c6.1-12.6,12.1-18.9,18-18.9C1029.1,49.1,1031,51.3,1031,55.6z M995.8,101.6
			c0-0.1-0.1-0.2-0.3-0.5c-0.2-0.2-0.7-0.3-1.5-0.3c-3.6,0-7.5,2.8-11.8,8.4c-4.2,5.6-6.4,10.3-6.4,14.1c0,2,0.7,3,2,3
			c2,0,4.5-2,7.7-6.1c1.2-1.5,3.1-4.6,5.8-9.3C994.4,105.7,995.8,102.6,995.8,101.6z M1025.7,55.9c0-2-0.8-3-2.4-3
			c-4.4,0-9.4,7.3-15,22c-3.7,9.6-6.6,19.3-8.8,28.9C1017,80.2,1025.7,64.2,1025.7,55.9z"/>
		<path class="st0" d="M1069.9,55.6c0,9.6-10.8,26.9-32.3,52.2c-0.5,3.2-0.8,6.1-0.8,8.9c0,6.9,1.4,10.3,4.3,10.3
			c1.9,0,4.7-2.2,8.3-6.6c3.7-4.4,5.6-6.6,5.9-6.6s0.4,0.2,0.4,0.7c0,0.5-0.2,1.1-0.7,1.9c-5.7,9.1-11.2,13.7-16.5,13.7
			c-4.7,0-7-3.6-7-10.7c0-2.3,0.3-4.9,0.8-7.8c-7,12.5-12.9,18.8-17.7,18.8c-2.8,0-4.2-1.5-4.2-4.6c0-5.6,2.9-12.1,8.7-19.5
			c6.1-7.9,11.9-11.6,17.2-11.1c3-10.4,6.3-19.4,10-27.2c6.1-12.6,12.1-18.9,18-18.9C1068,49.1,1069.9,51.3,1069.9,55.6z
			 M1034.8,101.6c0-0.1-0.1-0.2-0.3-0.5c-0.2-0.2-0.7-0.3-1.5-0.3c-3.6,0-7.5,2.8-11.8,8.4c-4.2,5.6-6.4,10.3-6.4,14.1
			c0,2,0.7,3,2,3c2,0,4.5-2,7.7-6.1c1.2-1.5,3.1-4.6,5.8-9.3C1033.3,105.7,1034.8,102.6,1034.8,101.6z M1064.6,55.9c0-2-0.8-3-2.4-3
			c-4.4,0-9.4,7.3-15,22c-3.7,9.6-6.6,19.3-8.8,28.9C1055.9,80.2,1064.6,64.2,1064.6,55.9z"/>
		<path class="st0" d="M1080,114.2c0,0.6-0.3,1.4-0.9,2.2c-8.2,10.9-15.2,16.4-21,16.4c-5,0-7.4-2.7-7.4-8c0-2.7,0.9-6.4,2.7-11.1
			c1.6-4.3,3.3-7.7,5.1-10.1c0.5-0.8,1.2-1.2,1.9-1.2c0.8,0,1.6,0.4,2.2,1.1c0.7,0.7,1,1.5,1,2.3c0,0.5-0.2,0.9-0.5,1.5
			c-4.5,7-6.8,12.9-6.8,17.6c0,3.2,1.2,4.9,3.5,4.9c2.6,0,5.5-1.4,8.8-4.3c2.2-1.9,4.6-4.5,7.2-7.8c2.3-2.9,3.4-4.3,3.5-4.3
			C1079.8,113.1,1080,113.5,1080,114.2z M1071,89.7c0,1.1-0.4,2.1-1.3,2.9c-0.9,0.9-1.9,1.3-3,1.3c-2.2,0-3.2-1.1-3.2-3.2
			c0-1.1,0.4-2,1.3-2.9c0.9-0.9,1.9-1.3,3-1.3C1069.9,86.5,1071,87.5,1071,89.7z"/>
		<path class="st0" d="M1117.8,113.6c0,0.6-0.3,1.4-0.8,2.3c-6.1,10-12.5,15.1-19.1,15.1c-5.1,0-7.7-3.2-7.7-9.6
			c0-5.7,1.3-10.7,3.9-15.1c-6.3,5.7-12.8,13.5-19.3,23.5c-0.5,0.8-0.9,1.2-1.2,1.2c-0.8,0-1.2-0.8-1.2-2.5c0-0.5,0.1-0.8,0.3-1.1
			c1.9-4.6,3.9-11.2,5.9-19.8c0.3-1.5,0.7-3.6,1.4-6.4c0.3-0.6,0.9-1.3,1.9-1.9c1-0.6,1.9-1,2.7-1c0.6,0,0.9,0.3,0.9,0.8
			c0,0.9-2.1,7.8-6.4,20.8c1.1-1.4,4.5-5.3,10.1-11.5c1.9-2.2,4.7-5.2,8.4-9.2c0.7-0.6,1.4-0.9,2.2-0.9c2.1,0,3.1,1,3.1,3.1
			c0,0.5-0.2,1-0.5,1.6c-5,8.3-7.6,14.9-7.6,19.7c0,3.4,1.6,5.1,4.9,5.1c2.5,0,5.2-1.3,8.1-3.9c1.9-1.6,4-4.1,6.4-7.3
			c1.9-2.6,3-3.9,3.2-3.9S1117.8,113.1,1117.8,113.6z"/>
		<path class="st0" d="M1143.6,100c0,0.4-0.4,0.7-1.2,0.9c-0.8,0.3-1.4,0.7-1.6,1.2c-0.5,2-0.9,4.3-1.5,6.9
			c-1.1,4.6-2.7,11.5-4.7,20.7h0.5c4.8-0.2,7.2,0.9,7.2,3.1c0,0.5-0.2,0.8-0.5,0.8c-0.1,0-0.5-0.2-1.1-0.7c-0.7-0.5-2-0.7-3.9-0.7
			c-0.9,0-1.8,0-2.7,0.1c-3.3,13.5-7.6,24-12.8,31.5c-9.7,14.2-20.1,21.4-31.1,21.4c-4.3,0-8-1.3-10.9-3.8
			c-2.9-2.5-4.4-5.9-4.4-10.1c0-9.6,6.8-18.9,20.5-27.7c11.6-7.5,22.9-12.1,33.8-13.8c0.6-3.4,1.7-8.6,3.1-15.5
			c-6,10.7-11.4,16.1-16.1,16.1c-2.8,0-4.2-1.5-4.2-4.6c0-4.6,2.3-10.2,6.8-16.9c4.5-6.7,8.9-10.7,13.1-12.2
			c1.6-0.6,3.1-0.9,4.5-0.9c1.3,0,2.8,0.4,4.6,1.3C1142.7,97.9,1143.6,98.9,1143.6,100z M1129,132.3c-5.9,1-13,3.6-21.2,7.7
			c-8.2,4.1-14.5,8.3-18.9,12.4c-6.8,6.5-10.1,12.9-10.1,19.3c0,3.5,1.1,6.3,3.3,8.4c2.2,2.1,5.1,3.2,8.6,3.2c5.6,0,11.1-2.3,16.5-7
			c4.3-3.7,8.2-8.4,11.5-14.2C1123.4,154.1,1126.8,144.1,1129,132.3z M1137.2,100.4c-0.4-0.1-0.8-0.1-1.2-0.1
			c-3.6,0-7.3,2.3-11.2,6.9c-5.5,6.7-8.2,12.1-8.2,16.4c0,1.9,0.6,2.8,1.9,2.8c2,0,4.5-2.1,7.7-6.2
			C1130.6,114.5,1134.3,108,1137.2,100.4z"/>
	</g>
	<g class="st1">
		<g>
			<path class="st2" d="M509.6,147.8h26.7l15.9,52.7l17.6-52.9h21.7l17.6,52.9l15.9-52.7h26.1l-30.4,91.7h-22L580.2,187L562,239.4
				h-22L509.6,147.8z"/>
			<path class="st2" d="M660.9,147.8h25.2v34.1h32.4v-34.1h25.2v91h-25.2v-34.6h-32.4v34.6h-25.2V147.8z"/>
			<path class="st2" d="M791.3,147.1h24.3l38.7,91.7h-27l-6.6-16.3h-35.1l-6.5,16.3h-26.5L791.3,147.1z M813.4,202.9L803.2,177
				L793,202.9H813.4z"/>
			<path class="st2" d="M873.7,169.9h-27.3v-22.1h79.8v22.1h-27.3v68.9h-25.2V169.9z"/>
			<path class="st2" d="M995.5,169.9h-27.3v-22.1h79.8v22.1h-27.3v68.9h-25.2V169.9z"/>
			<path class="st2" d="M1052.1,193.3c0-26.1,21.1-47.3,49.1-47.3s48.9,20.9,48.9,47.3c0,26.1-21.1,47.3-49.1,47.3
				S1052.1,219.7,1052.1,193.3z M1124.3,193.3c0-13.1-9.5-24.6-23.4-24.6c-13.8,0-23,11.2-23,24.6c0,13.1,9.5,24.6,23.3,24.6
				C1115.1,217.8,1124.3,206.7,1124.3,193.3z"/>
			<path class="st2" d="M1199.2,147.8h46.7c11.4,0,19.5,2.9,24.8,8.2c3.6,3.6,5.8,8.5,5.8,15c0,10.5-6,16.8-14,20.3
				c11,3.6,18.1,9.9,18.1,22.5c0,15.6-12.7,25.1-34.5,25.1h-46.9V147.8z M1239.7,184c7.7,0,12-2.6,12-8.2c0-4.9-3.9-7.8-11.4-7.8
				h-16.4v16H1239.7z M1243.3,218.5c7.7,0,12.1-3,12.1-8.6c0-4.9-3.9-8.2-12.4-8.2h-19.2v16.8H1243.3z"/>
			<path class="st2" d="M1291,198.9v-51.1h25.6v50.6c0,13.1,6.6,19.4,16.8,19.4c10.1,0,16.8-6,16.8-18.7v-51.2h25.6v50.4
				c0,29.4-16.8,42.3-42.6,42.3S1291,227.3,1291,198.9z"/>
			<path class="st2" d="M1417,204.7l-34.6-56.9h28.7l18.7,33.2l18.9-33.2h28.2l-34.6,56.6v34.5H1417V204.7z"/>
		</g>
	</g>
	<g>
		<g>
			<path class="st3" d="M867.5,151.8h7.2c3.4,0,5.7,1.7,5.7,4.3c0,2.4-1.5,3.6-3,4.1c2.1,0.5,3.9,1.8,3.9,4.2c0,2.9-2.5,4.8-6.3,4.8
				h-7.6V151.8z M874.5,159.9c2.6,0,4.5-1.3,4.5-3.6c0-1.9-1.6-3.2-4.4-3.2h-5.9v6.9H874.5z M875.1,168.1c3,0,4.9-1.4,4.9-3.6
				c0-2.1-1.9-3.4-5.3-3.4h-5.9v7H875.1z"/>
			<path class="st3" d="M885.3,151.6h1.5v1.7h-1.5V151.6z M885.4,156.6h1.2v12.7h-1.2V156.6z"/>
			<path class="st3" d="M889.5,168.2h1.7c1.1-1.8,1.9-4.7,1.9-8.9v-2.7h8.5v11.6h2l-0.3,4.7h-1v-3.6h-11.6l-0.3,3.6h-1V168.2z
				 M900.4,168.2v-10.5h-6.1v2.3c0,3.4-0.7,6.5-1.7,8.2H900.4z"/>
			<path class="st3" d="M905.8,162.9c0-3.7,2.6-6.6,6-6.6c3.6,0,5.8,2.9,5.8,6.7c0,0.2,0,0.3,0,0.5h-10.6c0.2,3.2,2.5,5,5,5
				c2,0,3.3-0.9,4.4-2l0.8,0.8c-1.3,1.4-2.8,2.4-5.3,2.4C908.7,169.6,905.8,167,905.8,162.9z M916.4,162.4c-0.2-2.6-1.6-4.9-4.6-4.9
				c-2.5,0-4.5,2.1-4.7,4.9H916.4z"/>
			<path class="st3" d="M920.4,163c0-3.6,2.8-6.7,6.6-6.7c3.8,0,6.5,3,6.5,6.7c0,3.6-2.8,6.7-6.6,6.7
				C923.2,169.6,920.4,166.6,920.4,163z M932.2,163c0-3.1-2.4-5.5-5.2-5.5c-2.9,0-5.2,2.5-5.2,5.5c0,3.1,2.3,5.5,5.2,5.5
				C929.8,168.5,932.2,166,932.2,163z"/>
			<path class="st3" d="M944.8,156.6h10.6v12.7h-1.2v-11.6H946v11.6h-1.2V156.6z"/>
			<path class="st3" d="M960.1,156.6h1.2v2.8c1.1-1.7,2.7-3.1,5.2-3.1c3.1,0,6.2,2.5,6.2,6.7c0,4.1-3.1,6.7-6.2,6.7
				c-2.5,0-4.2-1.4-5.2-3v6.7h-1.2V156.6z M971.4,163c0-3.3-2.3-5.5-5-5.5c-2.6,0-5.2,2.2-5.2,5.5c0,3.3,2.5,5.5,5.2,5.5
				C969.2,168.4,971.4,166.4,971.4,163z"/>
			<path class="st3" d="M975.7,163c0-3.6,2.8-6.7,6.6-6.7c3.8,0,6.5,3,6.5,6.7c0,3.6-2.8,6.7-6.6,6.7
				C978.4,169.6,975.7,166.6,975.7,163z M987.4,163c0-3.1-2.4-5.5-5.2-5.5c-2.9,0-5.2,2.5-5.2,5.5c0,3.1,2.3,5.5,5.2,5.5
				C985.1,168.5,987.4,166,987.4,163z"/>
			<path class="st3" d="M992.6,156.6h10.6v12.7h-1.2v-11.6h-8.1v11.6h-1.2V156.6z"/>
			<path class="st3" d="M1006.9,163c0-3.6,2.8-6.7,6.6-6.7c3.8,0,6.5,3,6.5,6.7c0,3.6-2.8,6.7-6.6,6.7
				C1009.7,169.6,1006.9,166.6,1006.9,163z M1018.7,163c0-3.1-2.4-5.5-5.2-5.5c-2.9,0-5.2,2.5-5.2,5.5c0,3.1,2.3,5.5,5.2,5.5
				C1016.3,168.5,1018.7,166,1018.7,163z"/>
			<path class="st3" d="M1022.1,167.7l0.8-1c1.3,1.1,2.7,1.8,4.4,1.8c1.8,0,3.5-1.1,3.5-2.6c0-1.5-1.3-2.4-3.5-2.4h-1.7v-1.1h1.8
				c1.8,0,3.2-0.9,3.2-2.5c0-1.4-1.3-2.3-3.1-2.3c-1.3,0-2.8,0.4-4,1.3l-0.7-1c1.3-1,3-1.5,4.7-1.5c2.7,0,4.4,1.4,4.4,3.4
				c0,1.6-1,2.5-2,2.9c1.4,0.5,2.4,1.4,2.4,3.1c0,2-1.9,3.7-4.7,3.7C1025.4,169.6,1023.6,168.9,1022.1,167.7z"/>
			<path class="st3" d="M1035.8,156.6h1.2v11.1l8.6-11.1h1.2v12.7h-1.2v-11.1l-8.6,11.1h-1.2V156.6z"/>
			<path class="st3" d="M1062.9,169.3h-11.4v-12.7h1.2v11.6h8.1v-11.6h1.2v11.6h2l-0.3,4.7h-1V169.3z"/>
			<path class="st3" d="M1067.3,151.6h1.5v1.7h-1.5V151.6z M1067.5,156.6h1.2v12.7h-1.2V156.6z"/>
			<path class="st3" d="M1071.4,152.5h1.7v2h-1.7V152.5z M1073.7,156.6h1.2v12.7h-1.2V156.6z M1075.5,152.5h1.7v2h-1.7V152.5z"/>
			<path class="st3" d="M1079.6,156.6h1.6v2.1h-1.6V156.6z M1079.6,167.2h1.6v2.1h-1.6V167.2z"/>
		</g>
	</g>
	<g>
		<g>
			<path class="st3" d="M813.3,194.8h9.2l5.5,18.2l6.1-18.3h7.5l6.1,18.3l5.5-18.2h9l-10.5,31.7h-7.6l-6.3-18.1l-6.3,18.1h-7.6
				L813.3,194.8z"/>
			<path class="st3" d="M865.7,194.8h8.7v11.8h11.2v-11.8h8.7v31.5h-8.7v-12h-11.2v12h-8.7V194.8z"/>
			<path class="st3" d="M910.8,194.6h8.4l13.4,31.7h-9.4l-2.3-5.6h-12.1l-2.3,5.6h-9.2L910.8,194.6z M918.5,213.9l-3.5-9l-3.6,9
				H918.5z"/>
			<path class="st3" d="M939.4,202.5h-9.4v-7.7h27.6v7.7h-9.4v23.8h-8.7V202.5z"/>
			<path class="st3" d="M981.5,202.5h-9.4v-7.7h27.6v7.7h-9.5v23.8h-8.7V202.5z"/>
			<path class="st3" d="M1001.1,210.6c0-9,7.3-16.4,17-16.4c9.7,0,16.9,7.2,16.9,16.4c0,9-7.3,16.4-17,16.4
				S1001.1,219.7,1001.1,210.6z M1026.1,210.6c0-4.5-3.3-8.5-8.1-8.5c-4.8,0-8,3.9-8,8.5c0,4.5,3.3,8.5,8.1,8.5
				C1022.9,219.1,1026.1,215.2,1026.1,210.6z"/>
			<path class="st3" d="M1052,194.8h16.2c4,0,6.8,1,8.6,2.8c1.3,1.3,2,2.9,2,5.2c0,3.6-2.1,5.8-4.9,7c3.8,1.3,6.3,3.4,6.3,7.8
				c0,5.4-4.4,8.7-11.9,8.7H1052V194.8z M1066,207.4c2.7,0,4.1-0.9,4.1-2.8c0-1.7-1.3-2.7-4-2.7h-5.7v5.5H1066z M1067.3,219.3
				c2.7,0,4.2-1,4.2-3c0-1.7-1.4-2.8-4.3-2.8h-6.7v5.8H1067.3z"/>
			<path class="st3" d="M1083.8,212.5v-17.7h8.9v17.5c0,4.5,2.3,6.7,5.8,6.7s5.8-2.1,5.8-6.5v-17.7h8.9v17.5
				c0,10.2-5.8,14.6-14.8,14.6C1089.4,226.9,1083.8,222.4,1083.8,212.5z"/>
			<path class="st3" d="M1127.4,214.6l-12-19.7h9.9l6.5,11.5l6.5-11.5h9.8l-12,19.6v11.9h-8.8V214.6z"/>
		</g>
	</g>
</g>
<g id="mobile-wedding-title">
	<g>
		<path class="st0" d="M941.5,80.2c0,0.4-0.3,0.6-0.8,0.6c-0.6,0-1.2-0.1-1.9-0.4c-1.1,4.6-2.8,9-5.2,13.2
			c-2.8,4.8-5.9,8.3-9.4,10.4c-1.4,0.9-2.8,1.3-4.2,1.3c-3.4,0-5.1-2.1-5.1-6.3c0-2.8,1.1-7.5,3.2-14.4
			c-6.6,6.7-10.8,10.8-12.6,12.5c-6,5.5-10.7,8.5-14.1,9.2c-0.8,0.2-1.6,0.3-2.4,0.3c-2.7,0-4.1-1.2-4.1-3.7c0-2.2,1.1-5.5,3.4-9.8
			c0.7-1.3,2.6-4.4,5.6-9.3c4.4-7.3,6.7-13,6.7-17.1c0-3.4-1.8-5.1-5.3-5.1c-4,0-9,2.3-15.2,7c-5.4,4.1-9.5,8.2-12.3,12.3
			c-1.8,2.7-2.8,5-2.8,6.7c0,1.5,0.9,2.3,2.6,2.3c0.6,0,1.4-0.2,2.5-0.6c1.1-0.4,1.8-0.6,2.2-0.6c0.5,0,0.8,0.1,0.8,0.4
			c0,0.7-0.8,1.3-2.5,1.9c-1.5,0.5-2.6,0.7-3.4,0.7c-2.7,0-4-1.4-4-4.2c0-3.7,2-7.9,6.1-12.5c3.7-4.2,8.1-7.8,13.4-10.9
			c5.3-3.1,9.7-4.6,13.4-4.6c5.5,0,8.3,2.4,8.3,7.1c0,2.2-0.6,4.6-1.9,7.3c-1.4,3-3.2,6.6-5.7,10.7c-2.1,3.5-4.2,6.9-6.2,10.4
			c-1.8,3.1-2.7,5.6-2.7,7.4c0,1.6,0.7,2.4,2,2.4c1.6,0,3.9-1,6.9-3.1c7.3-5,15-12.5,23.2-22.4c0.4-0.6,1.2-1.5,2.2-2.6
			c0.6-0.5,1.3-0.8,2.1-0.8c0.5,0,0.8,0.2,0.8,0.7c0,0.3-0.2,0.7-0.5,1.3c-4.7,8.2-7,15-7,20.2c0,3.6,0.9,5.4,2.8,5.4
			c1.6,0,3.7-1.4,6.5-4.3c2.2-2.4,3.9-4.5,5-6.5c3.2-5.9,4.9-10.4,4.9-13.4c0-0.5-0.2-1.3-0.5-2.3s-0.5-1.8-0.5-2.4
			c0-1.6,0.5-2.5,1.6-2.5c0.6,0,1.1,0.6,1.5,1.9c0.3,1,0.5,1.8,0.5,2.6c0,0.5,0,1-0.1,1.7c0.2,0.5,0.7,0.9,1.3,1.1
			C941.2,79.6,941.5,79.8,941.5,80.2z"/>
		<path class="st0" d="M955.9,96.5c0,0.1,0,0.2-0.1,0.4c-1.2,1.9-3,3.6-5.4,5.2c-2.6,1.7-4.9,2.5-7,2.5c-3,0-4.6-1.9-4.6-5.7
			c0-2.5,1.1-5.3,3.3-8.3c2.3-3.2,4.7-4.8,7.2-4.8c0.5,0,0.9,0.2,1.3,0.7c0.4,0.4,0.5,0.9,0.5,1.4c0,1.5-1.1,3.3-3.4,5.4
			c-2,1.9-3.9,3.1-5.6,3.8c-0.3,1.2-0.5,2.2-0.5,3c0,2,0.9,3,2.7,3c1.7,0,3.6-0.7,5.7-2.1c1.8-1.2,3.4-2.6,4.7-4.1
			c0.3-0.5,0.7-0.7,1-0.7C955.8,96.2,955.9,96.3,955.9,96.5z M948.8,88.8c0-0.6-0.3-0.9-0.9-0.9c-0.7,0-1.8,1.1-3.2,3.3
			c-1.2,1.9-2,3.4-2.2,4.4c1.3-0.5,2.6-1.5,3.9-2.8C948,91.3,948.8,90,948.8,88.8z"/>
		<path class="st0" d="M984.6,64.6c0,5.1-5.8,14.5-17.3,28c-0.3,1.7-0.4,3.3-0.4,4.8c0,3.7,0.8,5.5,2.3,5.5c1,0,2.5-1.2,4.5-3.5
			c2-2.3,3-3.5,3.2-3.5c0.1,0,0.2,0.1,0.2,0.4c0,0.2-0.1,0.6-0.4,1c-3,4.9-6,7.3-8.9,7.3c-2.5,0-3.8-1.9-3.8-5.7
			c0-1.2,0.1-2.6,0.4-4.2c-3.8,6.7-6.9,10.1-9.5,10.1c-1.5,0-2.2-0.8-2.2-2.5c0-3,1.5-6.5,4.6-10.4c3.3-4.3,6.4-6.2,9.2-5.9
			c1.6-5.6,3.4-10.4,5.4-14.6c3.3-6.8,6.5-10.2,9.6-10.2C983.6,61.1,984.6,62.3,984.6,64.6z M965.8,89.2c0,0,0-0.1-0.1-0.3
			c-0.1-0.1-0.4-0.2-0.8-0.2c-1.9,0-4,1.5-6.3,4.5c-2.3,3-3.4,5.5-3.4,7.5c0,1.1,0.4,1.6,1.1,1.6c1.1,0,2.4-1.1,4.1-3.3
			c0.6-0.8,1.7-2.5,3.1-5C965,91.4,965.8,89.8,965.8,89.2z M981.8,64.7c0-1.1-0.4-1.6-1.3-1.6c-2.4,0-5.1,3.9-8.1,11.8
			c-2,5.2-3.6,10.4-4.7,15.5C977.1,77.8,981.8,69.2,981.8,64.7z"/>
		<path class="st0" d="M1005.5,64.6c0,5.1-5.8,14.5-17.3,28c-0.3,1.7-0.4,3.3-0.4,4.8c0,3.7,0.8,5.5,2.3,5.5c1,0,2.5-1.2,4.5-3.5
			c2-2.3,3-3.5,3.2-3.5c0.1,0,0.2,0.1,0.2,0.4c0,0.2-0.1,0.6-0.4,1c-3,4.9-6,7.3-8.9,7.3c-2.5,0-3.8-1.9-3.8-5.7
			c0-1.2,0.1-2.6,0.4-4.2c-3.8,6.7-6.9,10.1-9.5,10.1c-1.5,0-2.2-0.8-2.2-2.5c0-3,1.5-6.5,4.6-10.4c3.3-4.3,6.4-6.2,9.2-5.9
			c1.6-5.6,3.4-10.4,5.4-14.6c3.3-6.8,6.5-10.2,9.6-10.2C1004.5,61.1,1005.5,62.3,1005.5,64.6z M986.7,89.2c0,0,0-0.1-0.1-0.3
			c-0.1-0.1-0.4-0.2-0.8-0.2c-1.9,0-4,1.5-6.3,4.5c-2.3,3-3.4,5.5-3.4,7.5c0,1.1,0.4,1.6,1.1,1.6c1.1,0,2.4-1.1,4.1-3.3
			c0.6-0.8,1.7-2.5,3.1-5C985.9,91.4,986.7,89.8,986.7,89.2z M1002.7,64.7c0-1.1-0.4-1.6-1.3-1.6c-2.4,0-5.1,3.9-8.1,11.8
			c-2,5.2-3.6,10.4-4.7,15.5C998,77.8,1002.7,69.2,1002.7,64.7z"/>
		<path class="st0" d="M1011,96c0,0.3-0.2,0.7-0.5,1.2c-4.4,5.9-8.2,8.8-11.2,8.8c-2.7,0-4-1.4-4-4.3c0-1.5,0.5-3.4,1.5-5.9
			c0.9-2.3,1.8-4.1,2.8-5.4c0.3-0.4,0.6-0.7,1-0.7c0.4,0,0.8,0.2,1.2,0.6c0.4,0.4,0.5,0.8,0.5,1.2c0,0.2-0.1,0.5-0.3,0.8
			c-2.4,3.8-3.6,6.9-3.6,9.4c0,1.7,0.6,2.6,1.9,2.6c1.4,0,3-0.8,4.7-2.3c1.2-1,2.4-2.4,3.8-4.2c1.2-1.5,1.8-2.3,1.9-2.3
			C1010.9,95.4,1011,95.6,1011,96z M1006.1,82.9c0,0.6-0.2,1.1-0.7,1.6c-0.5,0.5-1,0.7-1.6,0.7c-1.2,0-1.7-0.6-1.7-1.7
			c0-0.6,0.2-1.1,0.7-1.6c0.5-0.5,1-0.7,1.6-0.7C1005.5,81.1,1006.1,81.7,1006.1,82.9z"/>
		<path class="st0" d="M1031.2,95.7c0,0.3-0.1,0.7-0.4,1.2c-3.3,5.4-6.7,8.1-10.2,8.1c-2.8,0-4.1-1.7-4.1-5.2c0-3.1,0.7-5.8,2.1-8.1
			c-3.4,3-6.8,7.3-10.4,12.6c-0.3,0.4-0.5,0.7-0.7,0.7c-0.4,0-0.7-0.4-0.7-1.3c0-0.2,0-0.4,0.1-0.6c1-2.5,2.1-6,3.2-10.6
			c0.1-0.8,0.4-1.9,0.7-3.4c0.1-0.3,0.5-0.7,1-1c0.5-0.3,1-0.5,1.5-0.5c0.3,0,0.5,0.1,0.5,0.4c0,0.5-1.1,4.2-3.4,11.2
			c0.6-0.8,2.4-2.8,5.4-6.2c1-1.2,2.5-2.8,4.5-4.9c0.4-0.3,0.8-0.5,1.2-0.5c1.1,0,1.7,0.6,1.7,1.7c0,0.2-0.1,0.5-0.3,0.9
			c-2.7,4.5-4.1,8-4.1,10.6c0,1.8,0.9,2.8,2.6,2.8c1.4,0,2.8-0.7,4.4-2.1c1-0.9,2.2-2.2,3.4-3.9c1-1.4,1.6-2.1,1.7-2.1
			S1031.2,95.4,1031.2,95.7z"/>
		<path class="st0" d="M1045.1,88.4c0,0.2-0.2,0.4-0.7,0.5c-0.4,0.1-0.7,0.4-0.9,0.7c-0.2,1.1-0.5,2.3-0.8,3.7
			c-0.6,2.5-1.4,6.2-2.5,11.1h0.3c2.6-0.1,3.8,0.5,3.8,1.7c0,0.3-0.1,0.4-0.3,0.4c0,0-0.3-0.1-0.6-0.4c-0.4-0.2-1.1-0.4-2.1-0.4
			c-0.5,0-1,0-1.5,0.1c-1.8,7.3-4.1,12.9-6.9,16.9c-5.2,7.6-10.8,11.5-16.7,11.5c-2.3,0-4.3-0.7-5.8-2c-1.6-1.4-2.4-3.2-2.4-5.4
			c0-5.2,3.7-10.1,11-14.9c6.2-4,12.3-6.5,18.1-7.4c0.3-1.8,0.9-4.6,1.7-8.3c-3.2,5.8-6.1,8.6-8.6,8.6c-1.5,0-2.2-0.8-2.2-2.5
			c0-2.5,1.2-5.5,3.6-9.1c2.4-3.6,4.8-5.8,7-6.5c0.9-0.3,1.7-0.5,2.4-0.5c0.7,0,1.5,0.2,2.5,0.7
			C1044.6,87.3,1045.1,87.8,1045.1,88.4z M1037.2,105.7c-3.2,0.5-7,1.9-11.4,4.1c-4.4,2.2-7.8,4.4-10.2,6.7
			c-3.6,3.5-5.4,6.9-5.4,10.4c0,1.9,0.6,3.4,1.8,4.5c1.2,1.1,2.7,1.7,4.6,1.7c3,0,5.9-1.3,8.9-3.8c2.3-2,4.4-4.5,6.2-7.6
			C1034.2,117.4,1036.1,112,1037.2,105.7z M1041.7,88.6c-0.2,0-0.4-0.1-0.7-0.1c-1.9,0-3.9,1.2-6,3.7c-3,3.6-4.4,6.5-4.4,8.8
			c0,1,0.3,1.5,1,1.5c1.1,0,2.4-1.1,4.1-3.3C1038.1,96.2,1040.1,92.7,1041.7,88.6z"/>
	</g>
	<g>
		<g class="st1">
			<g>
				<path class="st2" d="M790,79.4h21.7l12.9,43L839,79.2h17.7l14.3,43.2l12.9-43h21.3l-24.8,74.8h-17.9l-15-42.7l-14.9,42.7h-17.9
					L790,79.4z"/>
				<path class="st2" d="M913.4,153.7V79.4h20.6v28h26.4v-28h20.6v74.2h-20.6v-28.2h-26.4v28.2H913.4z"/>
				<path class="st2" d="M988.1,153.7l31.6-74.8h19.8l31.6,74.8H1049l-5.4-13.3H1015l-5.3,13.3H988.1z M1021,124.4h16.7l-8.3-21.1
					L1021,124.4z"/>
				<path class="st2" d="M1074.2,97.5V79.4h65.1v18.1H1117v56.2h-20.6V97.5H1074.2z"/>
				<path class="st2" d="M790.8,181.9V167h53.7v14.9h-18.4v46.3h-16.9v-46.3H790.8z"/>
				<path class="st2" d="M849.8,197.6c0-4.3,0.8-8.5,2.5-12.4c1.7-3.9,4-7.3,6.9-10.1c2.9-2.8,6.4-5.1,10.5-6.8s8.5-2.5,13.1-2.5
					c4.6,0,9,0.8,13.1,2.5c4.1,1.7,7.5,3.9,10.4,6.7c2.9,2.8,5.1,6.2,6.8,10.1s2.5,8.1,2.5,12.5c0,4.3-0.8,8.4-2.5,12.4
					c-1.7,3.9-4,7.3-6.9,10.2c-2.9,2.8-6.4,5.1-10.5,6.8s-8.4,2.5-13.1,2.5c-6.2,0-11.8-1.4-16.8-4.2s-9-6.7-11.8-11.5
					C851.2,208.8,849.8,203.4,849.8,197.6z M867.2,197.6c0,4.5,1.5,8.4,4.4,11.7c3,3.2,6.7,4.9,11.2,4.9c4.6,0,8.3-1.6,11.2-4.8
					c2.9-3.2,4.4-7.1,4.4-11.7c0-4.5-1.5-8.4-4.4-11.7c-3-3.2-6.7-4.9-11.3-4.9c-4.5,0-8.2,1.6-11.1,4.8
					C868.6,189.1,867.2,193,867.2,197.6z"/>
				<path class="st2" d="M948.7,228.2V167h31.4c7.5,0,13,1.8,16.7,5.4c2.6,2.6,4,5.9,4,9.9c0,6.4-3.1,11-9.4,13.8
					c4,1.3,7,3.2,9.1,5.6c2.1,2.4,3.1,5.7,3.1,9.8c0,5.2-2,9.3-6.1,12.3c-4.1,3-9.8,4.4-17.1,4.4H948.7z M965.3,191.2H976
					c5.3,0,8-1.9,8-5.6c0-1.7-0.7-3-2-3.9c-1.3-0.9-3.2-1.4-5.7-1.4h-11V191.2z M965.3,214.8h13.1c2.6,0,4.6-0.5,6-1.5
					c1.4-1,2.1-2.5,2.1-4.4c0-1.7-0.7-3.1-2.1-4.1c-1.4-1-3.5-1.5-6.2-1.5h-12.9V214.8z"/>
				<path class="st2" d="M1010.4,201.3V167h17.2V201c0,4.3,1,7.5,3,9.7c2,2.2,4.8,3.3,8.3,3.3c3.5,0,6.3-1.1,8.3-3.2
					c2-2.1,3-5.3,3-9.4V167h17.2v33.9c0,4.9-0.7,9.1-2,12.8s-3.3,6.6-5.8,8.9c-2.5,2.3-5.5,4-9,5.1c-3.5,1.1-7.4,1.7-11.8,1.7
					c-9,0-15.9-2.3-20.9-7C1012.9,217.7,1010.4,210.7,1010.4,201.3z"/>
				<path class="st2" d="M1071.9,167h19.3l12.5,22.3l12.6-22.3h19l-23.3,38v23.2h-16.9v-22.9L1071.9,167z"/>
			</g>
		</g>
		<g>
			<g>
				<path class="st3" d="M881.8,130.6v-12.8h5.3c1.3,0,2.3,0.3,3,0.9c0.8,0.6,1.1,1.4,1.1,2.3c0,0.4-0.1,0.8-0.2,1.1
					c-0.1,0.3-0.3,0.6-0.5,0.9c-0.2,0.2-0.4,0.4-0.7,0.6c-0.2,0.2-0.5,0.3-0.8,0.4c1.9,0.5,2.9,1.5,2.9,3.1c0,1.1-0.4,1.9-1.3,2.5
					c-0.8,0.6-1.9,0.9-3.3,0.9H881.8z M882.7,123.7h4.2c1,0,1.8-0.2,2.4-0.7c0.6-0.5,0.9-1.1,0.9-2c0-0.7-0.3-1.3-0.8-1.7
					c-0.6-0.4-1.3-0.6-2.4-0.6h-4.3V123.7z M882.7,129.7h4.7c1.1,0,2-0.2,2.6-0.7c0.6-0.5,1-1.1,1-1.9c0-0.8-0.3-1.4-1-1.8
					c-0.7-0.4-1.6-0.7-2.9-0.7h-4.3V129.7z"/>
				<path class="st3" d="M894.8,118.8v-1.2h1.1v1.2H894.8z M894.9,130.6v-9.3h0.9v9.3H894.9z"/>
				<path class="st3" d="M897.9,129.8h1.2c0.9-1.5,1.4-3.7,1.4-6.5v-2h6.3v8.5h1.5l-0.2,3.4h-0.7v-2.6h-8.5l-0.2,2.6h-0.8V129.8z
					 M900.1,129.8h5.8v-7.7h-4.5v1.7c0,1.2-0.1,2.4-0.3,3.5C900.8,128.3,900.5,129.2,900.1,129.8z"/>
				<path class="st3" d="M909.8,125.9c0-0.7,0.1-1.3,0.3-1.9c0.2-0.6,0.5-1.1,0.9-1.6c0.4-0.4,0.9-0.8,1.4-1
					c0.6-0.3,1.1-0.4,1.8-0.4c0.9,0,1.6,0.2,2.3,0.6c0.7,0.4,1.2,1,1.5,1.8c0.3,0.7,0.5,1.6,0.5,2.5c0,0.1,0,0.3,0,0.4h-7.7
					c0.1,1.1,0.5,2,1.2,2.7c0.7,0.7,1.5,1,2.5,1c1.2,0,2.3-0.5,3.2-1.5l0.6,0.5c-0.5,0.6-1.1,1-1.7,1.3c-0.6,0.3-1.3,0.5-2.2,0.5
					c-0.6,0-1.2-0.1-1.7-0.4c-0.6-0.2-1-0.6-1.5-1c-0.4-0.4-0.7-0.9-1-1.6C910,127.3,909.8,126.6,909.8,125.9z M910.8,125.5h6.8
					c0-0.5-0.1-0.9-0.3-1.4c-0.2-0.4-0.4-0.8-0.6-1.2c-0.3-0.3-0.6-0.6-1-0.8c-0.4-0.2-0.9-0.3-1.4-0.3c-0.9,0-1.7,0.3-2.3,1
					C911.2,123.6,910.9,124.5,910.8,125.5z"/>
				<path class="st3" d="M920.5,125.9c0-0.6,0.1-1.3,0.4-1.9c0.2-0.6,0.6-1.1,1-1.6c0.4-0.4,0.9-0.8,1.5-1.1
					c0.6-0.3,1.2-0.4,1.9-0.4c0.9,0,1.7,0.2,2.5,0.7c0.7,0.4,1.3,1,1.7,1.8c0.4,0.7,0.6,1.6,0.6,2.4c0,0.9-0.2,1.7-0.6,2.4
					c-0.4,0.7-1,1.3-1.7,1.8c-0.7,0.4-1.6,0.7-2.5,0.7c-0.7,0-1.3-0.1-1.9-0.4c-0.6-0.3-1.1-0.6-1.5-1.1c-0.4-0.4-0.7-1-1-1.6
					C920.6,127.2,920.5,126.6,920.5,125.9z M921.5,125.9c0,1.1,0.4,2.1,1.1,2.9c0.7,0.8,1.7,1.2,2.7,1.2c0.7,0,1.3-0.2,1.9-0.5
					c0.6-0.4,1-0.9,1.4-1.5c0.3-0.6,0.5-1.3,0.5-2c0-1.1-0.4-2.1-1.1-2.9c-0.8-0.8-1.7-1.2-2.7-1.2c-0.7,0-1.3,0.2-1.9,0.5
					c-0.6,0.4-1,0.9-1.4,1.5C921.7,124.5,921.5,125.2,921.5,125.9z"/>
				<path class="st3" d="M938.3,130.6v-9.3h7.8v9.3h-0.9v-8.5h-6v8.5H938.3z"/>
				<path class="st3" d="M949.5,133.5v-12.3h0.9v2.1c1-1.5,2.3-2.3,3.8-2.3c0.6,0,1.1,0.1,1.7,0.3c0.5,0.2,1,0.5,1.5,0.9
					c0.4,0.4,0.8,0.9,1,1.5c0.3,0.6,0.4,1.3,0.4,2.1c0,0.7-0.1,1.4-0.4,2s-0.6,1.1-1,1.6c-0.4,0.4-0.9,0.7-1.5,1
					c-0.5,0.2-1.1,0.3-1.7,0.3c-1.6,0-2.9-0.7-3.8-2.2v4.9H949.5z M950.3,125.9c0,0.8,0.2,1.5,0.5,2.1c0.4,0.6,0.8,1.1,1.4,1.4
					c0.6,0.3,1.2,0.5,1.8,0.5c1,0,1.9-0.4,2.6-1.1c0.7-0.7,1-1.7,1-2.9c0-0.6-0.1-1.1-0.3-1.7c-0.2-0.5-0.5-0.9-0.8-1.3
					c-0.3-0.3-0.7-0.6-1.2-0.8c-0.4-0.2-0.9-0.3-1.4-0.3c-0.5,0-1,0.1-1.4,0.3c-0.5,0.2-0.9,0.5-1.2,0.8c-0.4,0.3-0.6,0.8-0.9,1.3
					C950.5,124.8,950.3,125.4,950.3,125.9z"/>
				<path class="st3" d="M960.9,125.9c0-0.6,0.1-1.3,0.4-1.9c0.2-0.6,0.6-1.1,1-1.6c0.4-0.4,0.9-0.8,1.5-1.1
					c0.6-0.3,1.2-0.4,1.9-0.4c0.9,0,1.7,0.2,2.5,0.7c0.7,0.4,1.3,1,1.7,1.8c0.4,0.7,0.6,1.6,0.6,2.4c0,0.9-0.2,1.7-0.6,2.4
					c-0.4,0.7-1,1.3-1.7,1.8c-0.7,0.4-1.6,0.7-2.5,0.7c-0.7,0-1.3-0.1-1.9-0.4c-0.6-0.3-1.1-0.6-1.5-1.1c-0.4-0.4-0.7-1-1-1.6
					C961.1,127.2,960.9,126.6,960.9,125.9z M961.9,125.9c0,1.1,0.4,2.1,1.1,2.9c0.7,0.8,1.7,1.2,2.7,1.2c0.7,0,1.3-0.2,1.9-0.5
					c0.6-0.4,1-0.9,1.4-1.5c0.3-0.6,0.5-1.3,0.5-2c0-1.1-0.4-2.1-1.1-2.9c-0.8-0.8-1.7-1.2-2.7-1.2c-0.7,0-1.3,0.2-1.9,0.5
					c-0.6,0.4-1,0.9-1.4,1.5C962.1,124.5,961.9,125.2,961.9,125.9z"/>
				<path class="st3" d="M973.3,130.6v-9.3h7.8v9.3h-0.9v-8.5h-6v8.5H973.3z"/>
				<path class="st3" d="M983.8,125.9c0-0.6,0.1-1.3,0.4-1.9c0.2-0.6,0.6-1.1,1-1.6c0.4-0.4,0.9-0.8,1.5-1.1
					c0.6-0.3,1.2-0.4,1.9-0.4c0.9,0,1.7,0.2,2.5,0.7c0.7,0.4,1.3,1,1.7,1.8c0.4,0.7,0.6,1.6,0.6,2.4c0,0.9-0.2,1.7-0.6,2.4
					c-0.4,0.7-1,1.3-1.7,1.8c-0.7,0.4-1.6,0.7-2.5,0.7c-0.7,0-1.3-0.1-1.9-0.4c-0.6-0.3-1.1-0.6-1.5-1.1c-0.4-0.4-0.7-1-1-1.6
					C983.9,127.2,983.8,126.6,983.8,125.9z M984.8,125.9c0,1.1,0.4,2.1,1.1,2.9c0.7,0.8,1.7,1.2,2.7,1.2c0.7,0,1.3-0.2,1.9-0.5
					c0.6-0.4,1-0.9,1.4-1.5c0.3-0.6,0.5-1.3,0.5-2c0-1.1-0.4-2.1-1.1-2.9c-0.8-0.8-1.7-1.2-2.7-1.2c-0.7,0-1.3,0.2-1.9,0.5
					c-0.6,0.4-1,0.9-1.4,1.5C984.9,124.5,984.8,125.2,984.8,125.9z"/>
				<path class="st3" d="M995.2,129.4l0.6-0.7c1,0.9,2.1,1.3,3.2,1.3c0.7,0,1.3-0.2,1.8-0.6c0.5-0.4,0.8-0.8,0.8-1.4
					c0-0.6-0.2-1-0.7-1.3c-0.5-0.3-1.1-0.5-1.9-0.5h-1.3v-0.8h1.3c0.7,0,1.2-0.2,1.7-0.5c0.4-0.3,0.7-0.8,0.7-1.3
					c0-0.5-0.2-0.9-0.6-1.2c-0.4-0.3-1-0.5-1.6-0.5c-0.5,0-1,0.1-1.5,0.2c-0.5,0.2-1,0.4-1.4,0.7l-0.5-0.7c1-0.7,2.1-1.1,3.5-1.1
					c1,0,1.8,0.2,2.3,0.7c0.6,0.5,0.9,1.1,0.9,1.8c0,1-0.5,1.7-1.5,2.2c1.2,0.4,1.7,1.2,1.7,2.3c0,0.8-0.3,1.4-1,1.9
					c-0.7,0.5-1.5,0.8-2.5,0.8C997.6,130.8,996.4,130.3,995.2,129.4z"/>
				<path class="st3" d="M1005.3,130.6v-9.3h0.9v8.1l6.3-8.1h0.9v9.3h-0.9v-8.1l-6.3,8.1H1005.3z"/>
				<path class="st3" d="M1016.8,130.6v-9.3h0.9v8.5h6v-8.5h0.9v8.5h1.5l-0.2,3.4h-0.7v-2.6H1016.8z"/>
				<path class="st3" d="M1028.3,118.8v-1.2h1.1v1.2H1028.3z M1028.4,130.6v-9.3h0.9v9.3H1028.4z"/>
				<path class="st3" d="M1031.3,119.7v-1.5h1.3v1.5H1031.3z M1033,130.6v-9.3h0.9v9.3H1033z M1034.3,119.7v-1.5h1.3v1.5H1034.3z"/>
				<path class="st3" d="M1037.3,122.8v-1.6h1.2v1.6H1037.3z M1037.3,130.6V129h1.2v1.6H1037.3z"/>
			</g>
		</g>
		<g>
			<g>
				<path class="st3" d="M840.4,149.2h6.8l4,13.3l4.5-13.4h5.5l4.4,13.4l4-13.3h6.6l-7.7,23.2h-5.6l-4.6-13.3l-4.6,13.3h-5.6
					L840.4,149.2z"/>
				<path class="st3" d="M878.7,172.3v-23.1h6.4v8.7h8.2v-8.7h6.4v23.1h-6.4v-8.8h-8.2v8.8H878.7z"/>
				<path class="st3" d="M901.9,172.3l9.8-23.2h6.2l9.8,23.2h-6.8l-1.7-4.1h-8.9l-1.6,4.1H901.9z M912.1,163.2h5.2l-2.6-6.6
					L912.1,163.2z"/>
				<path class="st3" d="M928.6,154.9v-5.6h20.2v5.6h-6.9v17.4h-6.4v-17.4H928.6z"/>
				<path class="st3" d="M959.5,154.9v-5.6h20.2v5.6h-6.9v17.4h-6.4v-17.4H959.5z"/>
				<path class="st3" d="M981.7,160.8c0-1.6,0.3-3.2,1-4.7c0.6-1.5,1.5-2.7,2.6-3.8c1.1-1.1,2.4-1.9,4-2.6c1.5-0.6,3.2-0.9,4.9-0.9
					c1.7,0,3.4,0.3,4.9,0.9c1.5,0.6,2.8,1.5,3.9,2.5c1.1,1.1,1.9,2.3,2.6,3.8c0.6,1.5,0.9,3,0.9,4.7c0,1.6-0.3,3.2-1,4.7
					c-0.6,1.5-1.5,2.8-2.6,3.8s-2.4,1.9-3.9,2.6c-1.5,0.6-3.2,0.9-4.9,0.9c-2.3,0-4.4-0.5-6.3-1.6c-1.9-1.1-3.4-2.5-4.4-4.3
					C982.2,165,981.7,163,981.7,160.8z M988.2,160.8c0,1.7,0.6,3.2,1.7,4.4c1.1,1.2,2.5,1.8,4.2,1.8c1.7,0,3.1-0.6,4.2-1.8
					c1.1-1.2,1.6-2.7,1.6-4.4c0-1.7-0.6-3.2-1.7-4.4c-1.1-1.2-2.5-1.8-4.3-1.8c-1.7,0-3.1,0.6-4.2,1.8
					C988.8,157.6,988.2,159,988.2,160.8z"/>
				<path class="st3" d="M1018.9,172.3v-23.1h11.8c2.8,0,4.9,0.7,6.3,2c1,1,1.5,2.2,1.5,3.7c0,2.4-1.2,4.1-3.6,5.2
					c1.5,0.5,2.6,1.2,3.4,2.1c0.8,0.9,1.2,2.1,1.2,3.7c0,2-0.8,3.5-2.3,4.6c-1.5,1.1-3.7,1.7-6.4,1.7H1018.9z M1025.2,158.4h4
					c2,0,3-0.7,3-2.1c0-0.6-0.2-1.1-0.7-1.5c-0.5-0.3-1.2-0.5-2.1-0.5h-4.1V158.4z M1025.2,167.3h4.9c1,0,1.7-0.2,2.3-0.6
					c0.5-0.4,0.8-0.9,0.8-1.7c0-0.7-0.3-1.2-0.8-1.5c-0.5-0.4-1.3-0.6-2.3-0.6h-4.9V167.3z"/>
				<path class="st3" d="M1042.2,162.2v-12.9h6.5v12.8c0,1.6,0.4,2.8,1.1,3.7s1.8,1.2,3.1,1.2s2.4-0.4,3.1-1.2
					c0.8-0.8,1.1-2,1.1-3.6v-13h6.5V162c0,1.8-0.3,3.4-0.8,4.8c-0.5,1.4-1.2,2.5-2.2,3.3c-1,0.9-2.1,1.5-3.4,1.9
					c-1.3,0.4-2.8,0.6-4.5,0.6c-3.4,0-6-0.9-7.9-2.6C1043.1,168.4,1042.2,165.7,1042.2,162.2z"/>
				<path class="st3" d="M1065.3,149.2h7.3l4.7,8.4l4.8-8.4h7.2l-8.8,14.3v8.7h-6.4v-8.6L1065.3,149.2z"/>
			</g>
		</g>
	</g>
</g> 
</svg>