<?xml version="1.0" encoding="utf-8"?>
<!-- Generator: Adobe Illustrator 18.1.1, SVG Export Plug-In . SVG Version: 6.00 Build 0)  -->
<svg version="1.1" id="Layer_1" xmlns="http://www.w3.org/2000/svg" xmlns:xlink="http://www.w3.org/1999/xlink" x="0px" y="0px"
	 viewBox="0 352 612 82" style="enable-background:new 0 352 612 82;" xml:space="preserve">
<style type="text/css">
	.st0{fill:#00F9F8;}
	.st1{opacity:0.1;}
	.st2{opacity:0.5;fill:#4D4F4E;enable-background:new    ;}
	.st3{fill:#4D4F4E;}
</style>
<g id="wedding-title">
	<g>
		<path class="st0" d="M303,374.8c0,0.2-0.2,0.4-0.5,0.4c-0.4,0-0.7-0.1-1.1-0.3c-0.6,2.7-1.7,5.4-3.1,7.8c-1.7,2.8-3.5,4.9-5.5,6.2
			c-0.8,0.5-1.7,0.8-2.5,0.8c-2,0-3-1.2-3-3.8c0-1.6,0.6-4.5,1.9-8.5c-3.9,4-6.4,6.4-7.5,7.4c-3.6,3.3-6.4,5.1-8.4,5.5
			c-0.5,0.1-1,0.2-1.4,0.2c-1.6,0-2.4-0.7-2.4-2.2c0-1.3,0.7-3.3,2-5.8c0.4-0.8,1.5-2.6,3.3-5.5c2.6-4.3,4-7.7,4-10.2
			c0-2-1.1-3-3.2-3c-2.4,0-5.4,1.4-9.1,4.2c-3.2,2.5-5.6,4.9-7.3,7.3c-1.1,1.6-1.6,2.9-1.6,4c0,0.9,0.5,1.4,1.6,1.4
			c0.4,0,0.8-0.1,1.5-0.4c0.6-0.2,1.1-0.4,1.3-0.4c0.3,0,0.5,0.1,0.5,0.3c0,0.4-0.5,0.8-1.5,1.1c-0.9,0.3-1.5,0.4-2,0.4
			c-1.6,0-2.4-0.8-2.4-2.5c0-2.2,1.2-4.7,3.6-7.4c2.2-2.5,4.8-4.6,8-6.5s5.8-2.8,8-2.8c3.3,0,4.9,1.4,4.9,4.2c0,1.3-0.4,2.7-1.1,4.4
			c-0.8,1.8-1.9,3.9-3.3,6.3c-1.2,2.1-2.5,4.1-3.7,6.2c-1.1,1.8-1.6,3.3-1.6,4.4c0,1,0.4,1.4,1.2,1.4c1,0,2.3-0.6,4.1-1.8
			c4.3-3,8.9-7.4,13.8-13.3c0.3-0.4,0.7-0.9,1.3-1.6c0.4-0.3,0.8-0.5,1.2-0.5c0.3,0,0.5,0.1,0.5,0.4c0,0.2-0.1,0.4-0.3,0.8
			c-2.8,4.9-4.2,8.9-4.2,12c0,2.1,0.6,3.2,1.7,3.2c1,0,2.2-0.9,3.8-2.6c1.3-1.4,2.3-2.7,3-3.9c1.9-3.5,2.9-6.2,2.9-8
			c0-0.3-0.1-0.8-0.3-1.4c-0.2-0.6-0.3-1.1-0.3-1.4c0-1,0.3-1.5,1-1.5c0.4,0,0.6,0.4,0.9,1.1c0.2,0.6,0.3,1.1,0.3,1.6
			c0,0.3,0,0.6,0,1c0.2,0.3,0.4,0.5,0.8,0.6C302.8,374.5,303,374.6,303,374.8z"/>
		<path class="st0" d="M311.5,384.5c0,0.1,0,0.2-0.1,0.3c-0.7,1.1-1.8,2.2-3.2,3.1c-1.5,1-2.9,1.5-4.2,1.5c-1.8,0-2.7-1.1-2.7-3.4
			c0-1.5,0.6-3.1,1.9-4.9c1.4-1.9,2.8-2.8,4.3-2.8c0.3,0,0.5,0.1,0.8,0.4s0.3,0.5,0.3,0.8c0,0.9-0.7,2-2,3.2
			c-1.2,1.1-2.3,1.9-3.3,2.2c-0.2,0.7-0.3,1.3-0.3,1.8c0,1.2,0.5,1.8,1.6,1.8c1,0,2.1-0.4,3.4-1.2c1.1-0.7,2-1.5,2.8-2.5
			c0.2-0.3,0.4-0.4,0.6-0.4C311.5,384.3,311.5,384.4,311.5,384.5z M307.3,379.9c0-0.4-0.2-0.5-0.5-0.5c-0.4,0-1.1,0.7-1.9,2
			c-0.7,1.1-1.2,2-1.3,2.6c0.7-0.3,1.5-0.9,2.3-1.7C306.9,381.4,307.3,380.6,307.3,379.9z"/>
		<path class="st0" d="M328.6,365.5c0,3.1-3.4,8.6-10.3,16.6c-0.2,1-0.3,1.9-0.3,2.8c0,2.2,0.4,3.3,1.4,3.3c0.6,0,1.5-0.7,2.6-2.1
			c1.2-1.4,1.8-2.1,1.9-2.1s0.1,0.1,0.1,0.2c0,0.2-0.1,0.4-0.2,0.6c-1.8,2.9-3.6,4.4-5.3,4.4c-1.5,0-2.2-1.1-2.2-3.4
			c0-0.7,0.1-1.6,0.3-2.5c-2.2,4-4.1,6-5.6,6c-0.9,0-1.3-0.5-1.3-1.5c0-1.8,0.9-3.9,2.8-6.2c1.9-2.5,3.8-3.7,5.5-3.5
			c1-3.3,2-6.2,3.2-8.7c1.9-4,3.9-6,5.7-6C328,363.5,328.6,364.2,328.6,365.5z M317.4,380.2c0,0,0-0.1-0.1-0.2
			c-0.1-0.1-0.2-0.1-0.5-0.1c-1.1,0-2.4,0.9-3.8,2.7c-1.3,1.8-2,3.3-2,4.5c0,0.6,0.2,1,0.6,1c0.6,0,1.4-0.6,2.5-1.9
			c0.4-0.5,1-1.5,1.8-3C317,381.5,317.4,380.5,317.4,380.2z M326.9,365.6c0-0.6-0.3-1-0.8-1c-1.4,0-3,2.3-4.8,7
			c-1.2,3.1-2.1,6.2-2.8,9.2C324.2,373.4,326.9,368.3,326.9,365.6z"/>
		<path class="st0" d="M341,365.5c0,3.1-3.4,8.6-10.3,16.6c-0.2,1-0.3,1.9-0.3,2.8c0,2.2,0.4,3.3,1.4,3.3c0.6,0,1.5-0.7,2.6-2.1
			c1.2-1.4,1.8-2.1,1.9-2.1s0.1,0.1,0.1,0.2c0,0.2-0.1,0.4-0.2,0.6c-1.8,2.9-3.6,4.4-5.3,4.4c-1.5,0-2.2-1.1-2.2-3.4
			c0-0.7,0.1-1.6,0.3-2.5c-2.2,4-4.1,6-5.6,6c-0.9,0-1.3-0.5-1.3-1.5c0-1.8,0.9-3.9,2.8-6.2c1.9-2.5,3.8-3.7,5.5-3.5
			c1-3.3,2-6.2,3.2-8.7c1.9-4,3.9-6,5.7-6C340.4,363.5,341,364.2,341,365.5z M329.8,380.2c0,0,0-0.1-0.1-0.2
			c-0.1-0.1-0.2-0.1-0.5-0.1c-1.1,0-2.4,0.9-3.8,2.7c-1.3,1.8-2,3.3-2,4.5c0,0.6,0.2,1,0.6,1c0.6,0,1.4-0.6,2.5-1.9
			c0.4-0.5,1-1.5,1.8-3C329.4,381.5,329.8,380.5,329.8,380.2z M339.3,365.6c0-0.6-0.3-1-0.8-1c-1.4,0-3,2.3-4.8,7
			c-1.2,3.1-2.1,6.2-2.8,9.2C336.6,373.4,339.3,368.3,339.3,365.6z"/>
		<path class="st0" d="M344.3,384.2c0,0.2-0.1,0.4-0.3,0.7c-2.6,3.5-4.8,5.2-6.7,5.2c-1.6,0-2.4-0.9-2.4-2.5c0-0.9,0.3-2,0.9-3.5
			c0.5-1.4,1.1-2.5,1.6-3.2c0.2-0.3,0.4-0.4,0.6-0.4c0.3,0,0.5,0.1,0.7,0.4c0.2,0.2,0.3,0.5,0.3,0.7c0,0.2-0.1,0.3-0.2,0.5
			c-1.4,2.2-2.2,4.1-2.2,5.6c0,1,0.4,1.6,1.1,1.6c0.8,0,1.8-0.4,2.8-1.4c0.7-0.6,1.5-1.4,2.3-2.5c0.7-0.9,1.1-1.4,1.1-1.4
			C344.2,383.9,344.3,384,344.3,384.2z M341.4,376.4c0,0.4-0.1,0.7-0.4,0.9c-0.3,0.3-0.6,0.4-1,0.4c-0.7,0-1-0.4-1-1
			c0-0.4,0.1-0.6,0.4-0.9c0.3-0.3,0.6-0.4,1-0.4C341,375.4,341.4,375.7,341.4,376.4z"/>
		<path class="st0" d="M356.3,384c0,0.2-0.1,0.4-0.3,0.7c-1.9,3.2-4,4.8-6.1,4.8c-1.6,0-2.5-1-2.5-3.1c0-1.8,0.4-3.4,1.2-4.8
			c-2,1.8-4.1,4.3-6.2,7.5c-0.2,0.3-0.3,0.4-0.4,0.4c-0.3,0-0.4-0.3-0.4-0.8c0-0.2,0-0.3,0.1-0.4c0.6-1.5,1.2-3.6,1.9-6.3
			c0.1-0.5,0.2-1.1,0.4-2c0.1-0.2,0.3-0.4,0.6-0.6s0.6-0.3,0.9-0.3c0.2,0,0.3,0.1,0.3,0.3c0,0.3-0.7,2.5-2,6.6
			c0.4-0.4,1.4-1.7,3.2-3.7c0.6-0.7,1.5-1.7,2.7-2.9c0.2-0.2,0.4-0.3,0.7-0.3c0.7,0,1,0.3,1,1c0,0.2-0.1,0.3-0.2,0.5
			c-1.6,2.6-2.4,4.7-2.4,6.3c0,1.1,0.5,1.6,1.6,1.6c0.8,0,1.7-0.4,2.6-1.2c0.6-0.5,1.3-1.3,2-2.3c0.6-0.8,1-1.2,1-1.2
			C356.2,383.7,356.3,383.9,356.3,384z"/>
		<path class="st0" d="M364.5,379.7c0,0.1-0.1,0.2-0.4,0.3c-0.3,0.1-0.4,0.2-0.5,0.4c-0.2,0.6-0.3,1.4-0.5,2.2
			c-0.4,1.5-0.9,3.7-1.5,6.6h0.2c1.5-0.1,2.3,0.3,2.3,1c0,0.2-0.1,0.3-0.2,0.3c0,0-0.2-0.1-0.4-0.2c-0.2-0.2-0.6-0.2-1.2-0.2
			c-0.3,0-0.6,0-0.9,0c-1.1,4.3-2.4,7.6-4.1,10c-3.1,4.5-6.4,6.8-9.9,6.8c-1.4,0-2.6-0.4-3.5-1.2s-1.4-1.9-1.4-3.2
			c0-3.1,2.2-6,6.5-8.8c3.7-2.4,7.3-3.9,10.8-4.4c0.2-1.1,0.5-2.7,1-4.9c-1.9,3.4-3.6,5.1-5.1,5.1c-0.9,0-1.3-0.5-1.3-1.5
			c0-1.5,0.7-3.3,2.2-5.4c1.4-2.1,2.8-3.4,4.2-3.9c0.5-0.2,1-0.3,1.4-0.3c0.4,0,0.9,0.1,1.5,0.4C364.2,379,364.5,379.3,364.5,379.7z
			 M359.9,390c-1.9,0.3-4.1,1.1-6.8,2.5s-4.6,2.6-6,4c-2.2,2.1-3.2,4.1-3.2,6.2c0,1.1,0.4,2,1.1,2.7c0.7,0.7,1.6,1,2.7,1
			c1.8,0,3.5-0.7,5.3-2.2c1.4-1.2,2.6-2.7,3.7-4.5C358.1,396.9,359.2,393.7,359.9,390z M362.5,379.8c-0.1,0-0.3,0-0.4,0
			c-1.1,0-2.3,0.7-3.6,2.2c-1.8,2.1-2.6,3.9-2.6,5.2c0,0.6,0.2,0.9,0.6,0.9c0.6,0,1.4-0.7,2.5-2
			C360.4,384.3,361.6,382.2,362.5,379.8z"/>
	</g>
	<g class="st1">
		<g>
			<path class="st2" d="M162.4,394.9h8.5l5.1,16.8l5.6-16.9h6.9l5.6,16.9l5.1-16.8h8.3l-9.7,29.2h-7l-5.9-16.7l-5.8,16.7h-7
				L162.4,394.9z"/>
			<path class="st2" d="M210.7,394.9h8v10.9H229v-10.9h8v29h-8v-11h-10.3v11h-8V394.9z"/>
			<path class="st2" d="M252.2,394.7h7.7l12.3,29.2h-8.6l-2.1-5.2h-11.2l-2.1,5.2h-8.4L252.2,394.7z M259.3,412.5l-3.3-8.3l-3.3,8.3
				H259.3z"/>
			<path class="st2" d="M278.5,402h-8.7v-7h25.4v7h-8.7v22h-8V402z"/>
			<path class="st2" d="M317.3,402h-8.7v-7H334v7h-8.7v22h-8V402z"/>
			<path class="st2" d="M335.4,409.4c0-8.3,6.7-15.1,15.7-15.1s15.6,6.7,15.6,15.1c0,8.3-6.7,15.1-15.7,15.1
				C342,424.5,335.4,417.8,335.4,409.4z M358.4,409.4c0-4.2-3-7.8-7.5-7.8c-4.4,0-7.3,3.6-7.3,7.8c0,4.2,3,7.8,7.4,7.8
				C355.4,417.2,358.4,413.7,358.4,409.4z"/>
			<path class="st2" d="M382.2,394.9h14.9c3.6,0,6.2,0.9,7.9,2.6c1.1,1.1,1.8,2.7,1.8,4.8c0,3.3-1.9,5.4-4.5,6.5
				c3.5,1.1,5.8,3.2,5.8,7.2c0,5-4,8-11,8h-14.9V394.9z M395.2,406.5c2.5,0,3.8-0.8,3.8-2.6c0-1.6-1.2-2.5-3.6-2.5h-5.2v5.1H395.2z
				 M396.3,417.5c2.5,0,3.9-1,3.9-2.7c0-1.6-1.2-2.6-4-2.6h-6.1v5.4H396.3z"/>
			<path class="st2" d="M411.5,411.2v-16.3h8.2V411c0,4.2,2.1,6.2,5.4,6.2c3.2,0,5.4-1.9,5.4-6v-16.3h8.2V411
				c0,9.4-5.4,13.5-13.6,13.5S411.5,420.3,411.5,411.2z"/>
			<path class="st2" d="M451.7,413.1l-11-18.1h9.1l6,10.6l6-10.6h9l-11,18v11h-8.1V413.1z"/>
		</g>
	</g>
	<g>
		<g>
			<path class="st3" d="M276.5,396.2h2.3c1.1,0,1.8,0.5,1.8,1.4c0,0.8-0.5,1.1-1,1.3c0.7,0.2,1.2,0.6,1.2,1.3c0,0.9-0.8,1.5-2,1.5
				h-2.4L276.5,396.2L276.5,396.2z M278.7,398.8c0.8,0,1.4-0.4,1.4-1.1c0-0.6-0.5-1-1.4-1h-1.9v2.2L278.7,398.8L278.7,398.8z
				 M278.9,401.4c1,0,1.6-0.4,1.6-1.1c0-0.7-0.6-1.1-1.7-1.1h-1.9v2.2H278.9z"/>
			<path class="st3" d="M282.2,396.1h0.5v0.5h-0.5V396.1z M282.2,397.7h0.4v4h-0.4V397.7z"/>
			<path class="st3" d="M283.5,401.4h0.5c0.4-0.6,0.6-1.5,0.6-2.8v-0.9h2.7v3.7h0.6l-0.1,1.5h-0.3v-1.1h-3.7l-0.1,1.1h-0.3
				L283.5,401.4L283.5,401.4z M287,401.4v-3.3h-1.9v0.7c0,1.1-0.2,2.1-0.5,2.6H287z"/>
			<path class="st3" d="M288.7,399.7c0-1.2,0.8-2.1,1.9-2.1c1.1,0,1.8,0.9,1.8,2.1c0,0.1,0,0.1,0,0.2h-3.4c0.1,1,0.8,1.6,1.6,1.6
				c0.6,0,1.1-0.3,1.4-0.6l0.3,0.3c-0.4,0.4-0.9,0.8-1.7,0.8C289.6,401.9,288.7,401,288.7,399.7z M292.1,399.6
				c-0.1-0.8-0.5-1.6-1.5-1.6c-0.8,0-1.4,0.7-1.5,1.6H292.1z"/>
			<path class="st3" d="M293.4,399.8c0-1.1,0.9-2.1,2.1-2.1c1.2,0,2.1,1,2.1,2.1c0,1.1-0.9,2.1-2.1,2.1
				C294.3,401.9,293.4,400.9,293.4,399.8z M297.1,399.8c0-1-0.8-1.8-1.7-1.8c-0.9,0-1.7,0.8-1.7,1.8c0,1,0.7,1.8,1.7,1.8
				C296.4,401.5,297.1,400.7,297.1,399.8z"/>
			<path class="st3" d="M301.2,397.7h3.4v4h-0.4v-3.7h-2.6v3.7h-0.4V397.7z"/>
			<path class="st3" d="M306,397.7h0.4v0.9c0.4-0.5,0.9-1,1.7-1c1,0,2,0.8,2,2.1c0,1.3-1,2.1-2,2.1c-0.8,0-1.3-0.4-1.7-1v2.1H306
				V397.7z M309.6,399.8c0-1.1-0.7-1.8-1.6-1.8c-0.8,0-1.7,0.7-1.7,1.8s0.8,1.8,1.7,1.8C308.9,401.5,309.6,400.8,309.6,399.8z"/>
			<path class="st3" d="M311,399.8c0-1.1,0.9-2.1,2.1-2.1s2.1,1,2.1,2.1c0,1.1-0.9,2.1-2.1,2.1C311.9,401.9,311,400.9,311,399.8z
				 M314.7,399.8c0-1-0.8-1.8-1.7-1.8c-0.9,0-1.7,0.8-1.7,1.8c0,1,0.7,1.8,1.7,1.8S314.7,400.7,314.7,399.8z"/>
			<path class="st3" d="M316.4,397.7h3.4v4h-0.4v-3.7h-2.6v3.7h-0.4L316.4,397.7L316.4,397.7z"/>
			<path class="st3" d="M320.9,399.8c0-1.1,0.9-2.1,2.1-2.1c1.2,0,2.1,1,2.1,2.1c0,1.1-0.9,2.1-2.1,2.1
				C321.8,401.9,320.9,400.9,320.9,399.8z M324.7,399.8c0-1-0.8-1.8-1.7-1.8c-0.9,0-1.7,0.8-1.7,1.8c0,1,0.7,1.8,1.7,1.8
				C323.9,401.5,324.7,400.7,324.7,399.8z"/>
			<path class="st3" d="M325.8,401.3l0.3-0.3c0.4,0.4,0.9,0.6,1.4,0.6c0.6,0,1.1-0.4,1.1-0.8s-0.4-0.8-1.1-0.8h-0.5v-0.4h0.6
				c0.6,0,1-0.3,1-0.8c0-0.4-0.4-0.7-1-0.7c-0.4,0-0.9,0.1-1.3,0.4l-0.2-0.3c0.4-0.3,1-0.5,1.5-0.5c0.9,0,1.4,0.4,1.4,1.1
				c0,0.5-0.3,0.8-0.6,0.9c0.4,0.2,0.8,0.4,0.8,1c0,0.6-0.6,1.2-1.5,1.2C326.8,401.9,326.3,401.6,325.8,401.3z"/>
			<path class="st3" d="M330.2,397.7h0.4v3.5l2.7-3.5h0.4v4h-0.4v-3.5l-2.7,3.5h-0.4V397.7z"/>
			<path class="st3" d="M338.8,401.8h-3.6v-4h0.4v3.7h2.6v-3.7h0.4v3.7h0.6l-0.1,1.5h-0.3L338.8,401.8L338.8,401.8z"/>
			<path class="st3" d="M340.2,396.1h0.5v0.5h-0.5V396.1z M340.3,397.7h0.4v4h-0.4V397.7z"/>
			<path class="st3" d="M341.5,396.4h0.5v0.6h-0.5V396.4z M342.2,397.7h0.4v4h-0.4V397.7z M342.8,396.4h0.5v0.6h-0.5V396.4z"/>
			<path class="st3" d="M344.1,397.7h0.5v0.7h-0.5V397.7z M344.1,401.1h0.5v0.7h-0.5V401.1z"/>
		</g>
	</g>
	<g>
		<g>
			<path class="st3" d="M259.2,409.9h2.9l1.8,5.8l1.9-5.8h2.4l1.9,5.8l1.8-5.8h2.9l-3.3,10.1h-2.4l-2-5.8l-2,5.8h-2.4L259.2,409.9z"
				/>
			<path class="st3" d="M275.9,409.9h2.8v3.8h3.6v-3.8h2.8v10h-2.8v-3.8h-3.6v3.8h-2.8V409.9z"/>
			<path class="st3" d="M290.3,409.8h2.7l4.3,10.1h-3l-0.7-1.8h-3.9l-0.7,1.8H286L290.3,409.8z M292.8,416l-1.1-2.9l-1.1,2.9H292.8z
				"/>
			<path class="st3" d="M299.4,412.4h-3v-2.5h8.8v2.5h-3v7.6h-2.8L299.4,412.4L299.4,412.4z"/>
			<path class="st3" d="M312.9,412.4h-3v-2.5h8.8v2.5h-3v7.6h-2.8L312.9,412.4L312.9,412.4z"/>
			<path class="st3" d="M319.1,414.9c0-2.9,2.3-5.2,5.4-5.2s5.4,2.3,5.4,5.2c0,2.9-2.3,5.2-5.4,5.2S319.1,417.8,319.1,414.9z
				 M327.1,414.9c0-1.4-1.1-2.7-2.6-2.7s-2.5,1.2-2.5,2.7c0,1.4,1.1,2.7,2.6,2.7C326,417.6,327.1,416.4,327.1,414.9z"/>
			<path class="st3" d="M335.3,409.9h5.2c1.3,0,2.2,0.3,2.7,0.9c0.4,0.4,0.6,0.9,0.6,1.7c0,1.1-0.7,1.8-1.6,2.2c1.2,0.4,2,1.1,2,2.5
				c0,1.7-1.4,2.8-3.8,2.8h-5.2V409.9z M339.8,413.9c0.9,0,1.3-0.3,1.3-0.9c0-0.5-0.4-0.9-1.3-0.9H338v1.8H339.8z M340.2,417.7
				c0.9,0,1.3-0.3,1.3-1c0-0.5-0.4-0.9-1.4-0.9H338v1.8H340.2z"/>
			<path class="st3" d="M345.5,415.5v-5.6h2.8v5.6c0,1.4,0.7,2.1,1.8,2.1s1.8-0.7,1.8-2.1v-5.6h2.8v5.6c0,3.3-1.8,4.7-4.7,4.7
				C347.2,420.1,345.5,418.7,345.5,415.5z"/>
			<path class="st3" d="M359.4,416.2l-3.8-6.3h3.2l2.1,3.7l2.1-3.7h3.1l-3.8,6.2v3.8h-2.8L359.4,416.2L359.4,416.2z"/>
		</g>
	</g>
</g>
</svg>
