<svg id="Слой_2" data-name="Слой 2" xmlns="http://www.w3.org/2000/svg" viewBox="0 0 376.83 56.92"><defs><style>.cls-1{fill:none;stroke:#fff;stroke-miterlimit:10;}</style></defs><title>Zberezhemo</title><path class="cls-1" d="M326.87,340.15l6.3-8a16.79,16.79,0,0,0,12.28,5.17c4.49,0,6.67-1.81,6.67-4.3s-2.18-3.86-7-3.86h-4.55v-9H345c4.36,0,6.17-1.68,6.17-4s-2.12-3.8-5.49-3.8a18.43,18.43,0,0,0-11.22,4.3l-6-7.11a24.77,24.77,0,0,1,18.26-7.42c9.72,0,16.33,5,16.33,11.78,0,5.17-2.68,8.1-6.54,9.91,4.43,1.5,7.67,4.61,7.67,10.1,0,7.79-6.61,13.53-17.33,13.53C336.91,347.44,331.73,344.45,326.87,340.15Z" transform="translate(-326.19 -300.18)"/><path class="cls-1" d="M369.07,326.56c0-9.85,1.87-20.88,15-23l17.2-2.81,1.43,9.16L385,313.16c-6,1.12-7.42,5.11-7.54,6.79,0.81-1.37,4.74-5,11.59-5,8.54,0,16.08,6,16.08,15.33s-7.6,17.14-18.08,17.14C375.06,347.44,369.07,340.21,369.07,326.56Zm24.56,3.86a6.69,6.69,0,0,0-6.54-7c-3.93,0-6.42,3.12-6.42,7a6.69,6.69,0,0,0,6.54,7C391.14,337.4,393.63,334.29,393.63,330.42Z" transform="translate(-326.19 -300.18)"/><path class="cls-1" d="M408.78,329.8c0-9.85,7-17.64,17-17.64,11.66,0,17,8.54,17,18.45,0,0.75,0,1.62-.06,2.43H420.19c0.94,3.68,3.62,5.55,7.29,5.55,2.8,0,5-1.06,7.48-3.43l6.54,5.42c-3.24,4.11-7.92,6.86-14.65,6.86C416.26,347.44,408.78,340.39,408.78,329.8Zm22.94-2.8c-0.44-3.74-2.62-6.11-5.86-6.11s-5.24,2.43-5.86,6.11h11.72Z" transform="translate(-326.19 -300.18)"/><path class="cls-1" d="M447.87,312.91h11.84v4.49c2.31-2.8,5.17-5.24,10.22-5.24,8,0,15,6.67,15,17.58S478,347.38,470,347.38a12.66,12.66,0,0,1-10.28-4.86V356.6H447.87V312.91Zm25.37,16.77c0-4.42-3.05-7.6-6.92-7.6s-6.86,3.18-6.86,7.73,3.05,7.67,6.86,7.67S473.24,334.35,473.24,329.67Z" transform="translate(-326.19 -300.18)"/><path class="cls-1" d="M488.64,329.8c0-9.85,7-17.64,17-17.64,11.66,0,17,8.54,17,18.45,0,0.75,0,1.62-.06,2.43H500c0.94,3.68,3.62,5.55,7.29,5.55,2.8,0,5-1.06,7.48-3.43l6.54,5.42c-3.24,4.11-7.92,6.86-14.65,6.86C496.12,347.44,488.64,340.39,488.64,329.8Zm22.94-2.8c-0.44-3.74-2.62-6.11-5.86-6.11s-5.24,2.43-5.86,6.11h11.72Z" transform="translate(-326.19 -300.18)"/><path class="cls-1" d="M536.08,326.74l-11.53-13.84h13.4l9.16,12.53V312.91H559v12.53l9.16-12.53h13.4l-11.59,13.84,11.91,19.88h-13l-6.86-11.53-3,3.62v7.92H547.11v-7.92l-3.05-3.62-6.79,11.53h-13Z" transform="translate(-326.19 -300.18)"/><path class="cls-1" d="M581.46,329.8c0-9.85,7-17.64,17-17.64,11.66,0,17,8.54,17,18.45,0,0.75,0,1.62-.06,2.43H592.87c0.94,3.68,3.62,5.55,7.29,5.55,2.8,0,5-1.06,7.48-3.43l6.54,5.42c-3.24,4.11-7.92,6.86-14.65,6.86C588.94,347.44,581.46,340.39,581.46,329.8ZM604.4,327c-0.44-3.74-2.62-6.11-5.86-6.11s-5.24,2.43-5.86,6.11H604.4Z" transform="translate(-326.19 -300.18)"/><path class="cls-1" d="M620.54,312.91h12l7.79,11.66,7.85-11.66h12v33.72H648.41V330l-8.23,11.47-8-11.22v16.39H620.54V312.91Z" transform="translate(-326.19 -300.18)"/><path class="cls-1" d="M665.24,329.8c0-9.6,7.85-17.64,18.7-17.64s18.57,7.92,18.57,17.64-7.85,17.64-18.7,17.64S665.24,339.52,665.24,329.8Zm25.74,0a7.31,7.31,0,0,0-7.17-7.6c-4.3,0-7,3.43-7,7.6a7.31,7.31,0,0,0,7.17,7.6C688.24,337.4,691,334,691,329.8Z" transform="translate(-326.19 -300.18)"/></svg>